<?xml version="1.0" encoding="utf-8"?>
<!-- Generator: Adobe Illustrator 18.1.0, SVG Export Plug-In . SVG Version: 6.00 Build 0)  -->
<svg version="1.1" id="Layer_1" xmlns="http://www.w3.org/2000/svg" xmlns:xlink="http://www.w3.org/1999/xlink" x="0px" y="0px"
	 viewBox="0 0 402 326" enable-background="new 0 0 402 326" xml:space="preserve">
<g>
	<g>
		<g>
			<path fill-rule="evenodd" clip-rule="evenodd" fill="#393637" d="M204.6,28.8c0.2-0.2,0.4-0.4,0.6-0.6c0.5-0.6,1.1-1.1,1.6-1.7
				c0.1-0.1,0.2-0.2,0.2-0.3c0.1-0.2,0.2-0.3,0.3-0.4c0.3-0.3,0.6-0.6,0.9-1c0.2-0.2,0.4-0.3,0.7-0.4c0.1,0,0.2-0.1,0.3-0.1
				c0.2-0.2,0.4-0.3,0.5-0.6c0.1-0.3,0.3-0.6,0.5-0.8c0.1-0.1,0.2-0.2,0.4-0.3c0.3-0.1,0.5-0.5,0.7-0.6c0.2-0.6,0.5-1,1.1-1.1
				c0.1-0.1,0.2-0.2,0.3-0.3c0-0.2,0-0.4,0-0.6c-0.1-0.1-0.2-0.3-0.4-0.3c-0.1,0-0.1-0.1-0.1-0.1c-0.2-0.3-0.6-0.4-0.9-0.7
				c-0.2,0-0.2-0.1-0.3-0.2c-0.1-0.1-0.2-0.2-0.4-0.3c-0.2-0.1-0.3-0.3-0.5-0.4c0-0.1,0-0.3,0-0.4c0.1-0.1,0.1-0.2,0.3-0.2
				c0.2-0.1,0.4-0.1,0.6-0.1c0.5,0,0.9-0.1,1.4-0.2c0.3-0.1,0.7-0.2,1.1-0.2c0.1,0,0.2,0,0.3,0c0.3,0,0.5,0,0.8-0.1c0,0,0.1,0,0.1,0
				c0.3-0.3,0.6-0.4,1-0.4c0.7,0,1.5-0.1,2.2-0.2c0.2,0,0.4,0,0.5,0c0,0,0.1,0.1,0.1,0.1c0,0.2,0,0.5-0.1,0.7c0,0.1,0,0.1,0,0.2
				c-0.2,0.4-0.2,0.9-0.4,1.4c-0.1,0.6-0.2,1.1-0.3,1.7c0,0.3,0,0.6,0.1,0.9c0.1,0.2,0,0.5,0,0.7c-0.1,0.3-0.1,0.6-0.1,0.9
				c0,0.3-0.1,0.6-0.1,0.9c0,0,0,0.1,0,0.1c0,0.3-0.1,0.5-0.3,0.7c-0.1,0-0.2-0.1-0.3-0.1c-0.1,0-0.2,0.1-0.2,0.1
				c-0.3-0.3-0.7-0.5-0.9-0.8c-0.2-0.2-0.5-0.4-0.5-0.8c-0.2-0.1-0.2-0.4-0.4-0.5c-0.2-0.1-0.3-0.3-0.4-0.4
				c-0.3-0.1-0.5-0.1-0.9,0.1c-0.2,0.2-0.5,0.6-0.8,0.9c-0.2,0.2-0.4,0.3-0.6,0.5c-0.2,0.2-0.3,0.4-0.5,0.5
				c-0.1,0.1-0.3,0.2-0.4,0.3c-0.2,0.2-0.3,0.4-0.4,0.7c0,0.2-0.1,0.4-0.3,0.6c-0.1,0.2-0.3,0.3-0.5,0.4c-0.2,0.1-0.3,0.3-0.4,0.4
				c-0.1,0.1-0.2,0.2-0.3,0.3c-0.2,0.1-0.5,0.2-0.7,0.2c-0.1,0-0.1,0.1-0.2,0.1c-0.2,0.2-0.4,0.4-0.6,0.7c0,0.1,0,0.1,0.1,0.2
				c-0.4,0.4-0.9,0.9-1.3,1.3c-0.1,0.1-0.3,0.1-0.4,0.3c-0.2,0-0.2,0.2-0.4,0.2c0,0-0.1,0.1-0.1,0.1c0,0.2-0.2,0.3-0.3,0.4
				c-0.1,0.1-0.2,0.3-0.3,0.5c-0.1,0.2-0.4,0.5-0.6,0.7c0,0-0.1,0-0.1,0c-0.2,0.3-0.6,0.5-0.9,0.7c-0.3,0.3-0.6,0.5-0.8,0.8
				c-0.1,0.1-0.1,0.2-0.2,0.3c-0.2,0.4-0.5,0.7-0.9,0.9c-0.2,0.1-0.3,0.1-0.5,0.3c-0.3,0.4-0.7,0.6-1.1,1c-0.1,0.1-0.2,0.3-0.3,0.4
				c-0.1,0.1-0.3,0.2-0.3,0.4c0,0.1-0.1,0.1-0.2,0.2c-0.7,0.7-1.3,1.3-2,2c-0.1,0.1-0.2,0.2-0.2,0.3c0,0.1-0.2,0.2-0.2,0.3
				c0,0-0.1,0.1-0.1,0.1c-0.1,0.1-0.2,0.3-0.4,0.3c-0.1,0-0.2,0.2-0.4,0.3c-0.1,0-0.1,0.1-0.2,0.1c-0.4,0.4-0.8,0.8-1.2,1.2
				c-0.2,0.2-0.3,0.4-0.4,0.6c0,0,0,0.1-0.1,0.1c-0.5,0.4-0.8,1-1.3,1.4c-0.1,0.1-0.5,0-0.6,0c-0.3,0-0.1,0.5-0.4,0.5
				c0,0-0.1,0.1-0.1,0.1c-0.2,0.4-0.6,0.6-0.8,0.9c-0.3,0.4-0.6,0.8-1,1.1c-0.1,0.1-0.3,0.1-0.4,0.2c-0.1,0.1,0.1,0.2,0,0.3
				c-0.1,0.1-0.2,0.2-0.3,0.3c0,0.2-0.1,0.3-0.1,0.4c0,0.3-0.1,0.6-0.1,0.8c0,0.1,0,0.3-0.1,0.4c-0.1,0.5-0.1,0.6,0,1.2
				c0.1,0.4,0.1,0.7-0.1,1.1c-0.2,0.3-0.2,0.7-0.1,1.1c0,0.1,0,0.2,0.1,0.2c0.1,0.2,0.1,0.4,0,0.6c-0.1,0.1-0.2,0.1-0.3,0.2
				c-0.1,0.1-0.2,0.1-0.3,0.2c-0.1,0.1-0.2,0.2-0.2,0.2c-0.3,0.1-0.5,0.1-0.8,0c-0.2-0.1-0.4-0.3-0.5-0.5c0-0.4,0-0.8-0.1-1.2
				c0-0.4,0.1-0.7,0.1-1.1c0-0.2,0.1-0.4,0.1-0.5c0-0.3,0.1-0.5,0.2-0.7c0.1-0.1,0.1-0.3,0.2-0.4c0,0-0.1-0.1-0.1-0.1
				c-0.2,0-0.4,0-0.6,0.1c-0.1,0.2-0.2,0.4-0.3,0.6c-0.1,0.2-0.1,0.4-0.4,0.5c-0.1,0-0.2,0-0.3,0c0,0,0,0.1,0,0.1
				c0.1,0.5,0.2,0.9,0.1,1.4c0,0.1-0.1,0.2-0.1,0.4c0,0.3-0.1,0.7-0.1,1c0,0.2,0,0.3,0,0.5c-0.1,0.3,0.1,0.5,0.1,0.8
				c0,0.3,0,0.5,0,0.8c0,0.2-0.1,0.5-0.1,0.7c0,0.1,0,0.3,0,0.4c-0.1,0.1-0.2,0.2-0.2,0.3c-0.1,0-0.1,0-0.2,0.1
				c-0.2,0.1-0.3,0.2-0.5,0.2c-0.2,0-0.4-0.1-0.5-0.2c-0.1-0.1-0.2-0.2-0.2-0.4c-0.1-0.3-0.1-0.6,0-0.9c0.1-0.2,0.1-0.5,0.1-0.8
				c0.1-0.4,0-0.9,0-1.3c0-0.3,0.1-0.5,0.2-0.7c0-0.1,0-0.1,0-0.2c-0.2-0.1-0.3-0.2-0.5-0.4c-0.1,0.1-0.1,0.2-0.2,0.3
				c-0.1,0.2-0.1,0.3-0.2,0.5c-0.2,0.2-0.2,0.3-0.4,0.4c-0.2,0.1-0.4,0.2-0.5,0.4c-0.2,0.2-0.3,0.4-0.6,0.6
				c-0.3,0.2-0.4,0.4-0.7,0.6c-0.1,0-0.3,0-0.5,0c-0.2-0.1-0.4-0.3-0.5-0.5c0-0.1-0.1-0.2-0.1-0.3c0-0.2,0-0.3,0.2-0.5
				c0.1-0.1,0.2-0.2,0.3-0.3c0.5-0.5,0.9-1,1.4-1.5c0.1-0.2,0.3-0.2,0.5-0.4c0.1-0.1,0.2-0.1,0.2-0.1c0-0.1,0-0.2-0.1-0.3
				c-0.1-0.1-0.2-0.2-0.3-0.3c-0.1,0-0.3-0.1-0.4,0.1c-0.4,0.1-0.7,0.2-1.1,0.1c-0.4-0.1-0.8-0.1-1.2,0.1c-0.2,0.1-0.4,0.1-0.6,0.1
				c-0.2,0-0.4,0-0.6-0.1c0,0-0.1,0-0.1,0c0-0.2-0.2-0.3-0.2-0.6c0-0.3,0-0.5,0.1-0.8c0.1-0.1,0.2-0.2,0.3-0.3c0.4-0.2,0.7-0.1,1,0
				c0.3,0.1,0.5,0.1,0.8,0.1c0.3,0,0.5-0.1,0.7-0.2c0.3-0.1,0.7-0.2,1-0.2c0.5,0,1,0,1.5,0c0.2,0,0.3,0.1,0.5,0
				c0.1-0.1,0.3-0.1,0.5-0.2c0.2-0.1,0.5-0.2,0.7-0.3c0.1-0.1,0.3-0.1,0.4-0.2c0.2-0.1,0.4-0.5,0.3-0.8c0,0,0-0.1,0-0.2
				c-0.2,0.1-0.5,0.1-0.7,0.3c-0.3,0.2-0.6,0.2-0.9,0.2c-0.7,0.1-1.5,0-2.2,0c-0.1,0-0.2,0-0.2,0c-0.4-0.2-0.6-0.4-0.7-0.7
				c0-0.1,0-0.3,0-0.5c0.2-0.1,0.3-0.3,0.4-0.3c0.2-0.1,0.4-0.1,0.5-0.1c0.4,0,0.9-0.1,1.3-0.1c0.3,0,0.6,0,1-0.1c0.3,0,0.5,0,0.8,0
				c0.4,0,0.9,0,1.3,0c0.4,0,0.9-0.1,1.3-0.3c0.2-0.1,0.3-0.3,0.4-0.5c0.1-0.3,0.2-0.5,0.4-0.7c0.4-0.3,0.7-0.6,1-0.9
				c0.1-0.1,0.3-0.1,0.4-0.3c0.2,0,0.3-0.2,0.4-0.3c0.1-0.1,0.2-0.3,0.4-0.3c0.2,0,0.2-0.3,0.4-0.2c0.1-0.2,0.4-0.3,0.5-0.5
				c0-0.1,0.2-0.2,0.2-0.4c0.2-0.2,0.3-0.5,0.6-0.6c0.1-0.2,0.4-0.3,0.5-0.4c0.2-0.2,0.3-0.3,0.5-0.5c0.2-0.1,0.3-0.3,0.5-0.4
				c0.1-0.1,0.5-0.3,0.5-0.4c0-0.1-0.1,0.4,0,0.3c0,0-0.1-0.1-0.1-0.1c-0.2,0.3-0.1,0.4-0.4,0.5c-0.2,0.1-0.2,0-0.3,0.2
				c-0.3,0.3-0.4,0.2-0.7,0.5c-0.1-0.1,0.3-0.2,0.2-0.3c0.2-0.2,0.2-0.3,0.5-0.5c0.5-0.5,0.1,0.1,0.6-0.4c0.2-0.2,0.3-0.2,0.5-0.4
				c0.1,0,0.3-0.7,0.5-0.7c0,0,0.1,0,0.2,0c0,0.1,0.1-0.4,0.1-0.3c0,0,0,0,0.1,0c0.3-0.3,0.6-0.6,0.9-0.9c0.1-0.1,0.1-0.2,0.2-0.3
				c0.1-0.2,0.4-0.2,0.5-0.4c0.1-0.1,0.2-0.1,0.3-0.2c-0.2-0.2,0.4-0.1,0.2-0.3c0.1,0.7-0.4,0.4-0.4,0.4c0.3,0.1,0.4-0.6,0.6-0.9
				c0.1-0.1,0.3-0.2,0.3-0.4c0.1-0.2,0.3-0.2,0.3-0.4c0,0,0,0,0-0.1c0.2-0.2,0.4-0.5,0.6-0.7c0-0.1,0,0.2,0,0.1c0-0.1,0.1,0,0.2-0.1
				c0,0.1,0.1-0.3,0.2-0.2c0.2-0.2,0.4-0.3,0.5-0.6c0,0,0-0.1,0.1-0.1c0.2-0.1,0.4-0.3,0.6-0.5c0.1,0,0.1-0.1,0.2-0.1
				c0.2-0.2,0.5-0.4,0.6-0.7c0.2-0.3,0.5-0.6,0.8-0.8c0.4-0.2,0.6-0.5,0.9-0.8c0.2-0.3,0.4-0.5,0.7-0.7
				C204.1,29,204.4,28.9,204.6,28.8z"/>
			<path fill-rule="evenodd" clip-rule="evenodd" fill="#393637" d="M208.9,26.8c-0.1,0.3-0.2,0.5-0.2,0.7c-0.1,0.5-1.3,0.8-1.6,1.1
				c-0.2-0.2,0.6-0.4,0.6-0.7C208,27.4,208.4,27.1,208.9,26.8z"/>
		</g>
		<g>
			<path fill-rule="evenodd" clip-rule="evenodd" fill="#393637" d="M193.3,30.1c-0.2-0.2-0.4-0.4-0.6-0.6c-0.6-0.5-1.1-1.1-1.7-1.6
				c-0.1-0.1-0.2-0.2-0.3-0.2c-0.2,0-0.3-0.2-0.4-0.3c-0.3-0.3-0.6-0.6-1-0.9c-0.2-0.2-0.3-0.4-0.4-0.7c0-0.1-0.1-0.2-0.1-0.3
				c-0.2-0.2-0.3-0.4-0.6-0.5c-0.3-0.1-0.6-0.3-0.8-0.5c-0.1-0.1-0.2-0.2-0.3-0.4c-0.2-0.3-0.5-0.5-0.6-0.7c-0.6-0.2-1-0.5-1.1-1.1
				c-0.1-0.1-0.2-0.2-0.3-0.3c-0.2,0-0.4,0-0.6,0c-0.1,0.1-0.3,0.2-0.3,0.4c0,0.1-0.1,0.1-0.1,0.1c-0.3,0.2-0.4,0.6-0.7,0.9
				c0,0.2-0.1,0.2-0.2,0.3c-0.1,0.1-0.2,0.2-0.3,0.4c-0.1,0.2-0.2,0.3-0.4,0.5c-0.1,0-0.3,0-0.4,0c-0.1-0.1-0.2-0.1-0.2-0.3
				c-0.1-0.2-0.1-0.4-0.1-0.6c0-0.5-0.1-0.9-0.2-1.4c-0.1-0.3-0.2-0.7-0.2-1.1c0-0.1,0-0.2,0-0.3c0-0.3,0-0.5-0.1-0.8
				c0,0,0-0.1,0-0.1c-0.3-0.3-0.4-0.6-0.4-1c0-0.7-0.1-1.5-0.2-2.2c0-0.2,0-0.4,0-0.5c0,0,0.1-0.1,0.1-0.1c0.2,0,0.5,0,0.7,0.1
				c0.1,0,0.1,0,0.2,0.1c0.4,0.2,0.9,0.2,1.4,0.4c0.6,0.1,1.1,0.2,1.7,0.3c0.3,0,0.6,0,0.9,0c0.2-0.1,0.5,0,0.7,0
				c0.3,0.1,0.6,0,0.9,0.1c0.3,0,0.6,0.1,0.9,0.1c0,0,0.1,0,0.1,0c0.3,0,0.5,0.1,0.7,0.3c0,0.1-0.1,0.2-0.1,0.3
				c0,0.1,0.1,0.2,0.1,0.3c-0.3,0.3-0.5,0.7-0.8,0.9c-0.2,0.2-0.4,0.5-0.8,0.5c-0.1,0.2-0.4,0.2-0.5,0.4c-0.1,0.2-0.3,0.3-0.4,0.4
				c-0.1,0.3-0.1,0.5,0.1,0.9c0.2,0.2,0.6,0.5,0.9,0.8c0.2,0.2,0.3,0.4,0.5,0.6c0.2,0.2,0.4,0.3,0.5,0.5c0.1,0.1,0.2,0.3,0.3,0.4
				c0.2,0.2,0.4,0.3,0.7,0.4c0.2,0,0.4,0.1,0.6,0.3c0.2,0.1,0.3,0.3,0.4,0.5c0.1,0.2,0.3,0.3,0.4,0.4c0.1,0.1,0.2,0.2,0.3,0.3
				c0.1,0.2,0.2,0.5,0.2,0.7c0,0.1,0.1,0.1,0.1,0.2c0.2,0.2,0.4,0.4,0.6,0.6c0.1,0,0.1,0,0.2-0.1c0.4,0.4,0.9,0.9,1.3,1.3
				c0.1,0.1,0.1,0.3,0.3,0.4c0,0.2,0.2,0.3,0.2,0.4c0,0,0.1,0.1,0.1,0.1c0.2,0,0.3,0.2,0.4,0.3c0.1,0.1,0.3,0.2,0.5,0.3
				c0.2,0.1,0.5,0.4,0.7,0.6c0,0,0,0.1,0,0.1c0.3,0.2,0.5,0.6,0.7,0.9c0.3,0.3,0.5,0.6,0.8,0.8c0.1,0.1,0.2,0.1,0.3,0.2
				c0.4,0.2,0.7,0.5,0.9,0.9c0.1,0.2,0.2,0.3,0.3,0.5c0.4,0.3,0.6,0.7,1,1.1c0.1,0.1,0.3,0.2,0.4,0.3c0.1,0.1,0.2,0.3,0.4,0.3
				c0.1,0,0.1,0.1,0.2,0.2c0.7,0.7,1.3,1.3,2,2c0.1,0.1,0.2,0.2,0.3,0.2c0.1,0,0.2,0.2,0.3,0.2c0,0,0.1,0.1,0.1,0.1
				c0.1,0.1,0.3,0.2,0.3,0.4c0,0.1,0.3,0.2,0.3,0.4c0,0.1,0.1,0.1,0.1,0.2c0.4,0.4,0.8,0.8,1.2,1.2c0.2,0.2,0.4,0.3,0.6,0.4
				c0,0,0.1,0,0.1,0.1c0.4,0.5,1,0.8,1.4,1.3c0.1,0.1,0.2,0.2,0.2,0.3c0,0.3,0.3,0.4,0.4,0.7c0,0,0.1,0.1,0.1,0.1
				c0.4,0.2,0.6,0.6,0.9,0.8c0.4,0.3,0.8,0.6,1.1,1c0.1,0.1,0.2,0.1,0.3,0.2c0.1,0.1,0.1,0.1,0.3,0.2c0.1,0.1,0.2,0.2,0.3,0.3
				c0.2,0,0.3,0.1,0.4,0.1c0.3,0,0.6,0.1,0.8,0.1c0.1,0,0.3,0,0.4,0.1c0.5,0.1,0.6,0.1,1.2,0c0.4-0.1,0.7-0.1,1.1,0.1
				c0.3,0.2,0.7,0.2,1.1,0.1c0.1,0,0.2,0,0.2-0.1c0.2-0.1,0.4-0.1,0.6,0c0.1,0.1,0.1,0.2,0.2,0.3c0.1,0.1,0.1,0.2,0.2,0.3
				c0.1,0.1,0.2,0.2,0.2,0.2c0.1,0.3,0.1,0.5,0,0.8c-0.1,0.2-0.3,0.4-0.5,0.5c-0.4,0-0.8,0-1.2,0.1c-0.4,0-0.8-0.1-1.1-0.1
				c-0.2,0-0.4-0.1-0.5-0.1c-0.3,0-0.5-0.1-0.7-0.2c-0.1-0.1-0.3-0.1-0.4-0.2c0,0-0.1,0.1-0.1,0.1c0,0.2,0,0.5,0.1,0.6
				c0.2,0.1,0.4,0.2,0.6,0.3c0.2,0.1,0.4,0.1,0.5,0.3c0,0.1,0,0.2,0,0.3c0,0,0.1,0,0.1,0c0.5-0.1,0.9-0.2,1.4-0.1
				c0.1,0,0.2,0.1,0.4,0.1c0.4,0,0.7,0.1,1,0.1c0.2,0,0.3,0,0.5,0c0.3,0.1,0.5-0.1,0.8-0.1c0.3,0,0.5,0,0.8,0c0.2,0,0.5,0.1,0.7,0.1
				c0.1,0,0.3,0,0.4,0c0.1,0.1,0.2,0.2,0.3,0.2c0,0.1,0,0.1,0.1,0.2c0.1,0.2,0.2,0.3,0.2,0.5c0,0.2-0.1,0.4-0.2,0.5
				c-0.1,0.1-0.2,0.2-0.4,0.2c-0.3,0.1-0.6,0.1-0.9,0c-0.2-0.1-0.5-0.1-0.8-0.1c-0.4,0-0.9,0-1.3,0c-0.2,0-0.5-0.1-0.7-0.2
				c-0.1,0-0.1,0-0.2,0c-0.1,0.2-0.2,0.3-0.4,0.5c0.1,0.1,0.2,0.1,0.3,0.2c0.2,0.1,0.3,0.1,0.5,0.2c0.2,0.2,0.2,0.2,0.4,0.4
				c0.1,0.2,0.2,0.4,0.4,0.5c0.2,0.2,0.4,0.3,0.6,0.6c0.2,0.3,0.4,0.4,0.6,0.7c0,0.1,0,0.3,0,0.5c-0.1,0.2-0.3,0.4-0.4,0.5
				c-0.1,0-0.2,0.1-0.3,0.1c-0.2,0-0.3,0-0.5-0.2c-0.1-0.1-0.2-0.2-0.3-0.3c-0.5-0.5-1-0.9-1.5-1.4c-0.2-0.2-0.2-0.3-0.4-0.5
				c-0.1-0.1-0.1-0.2-0.1-0.2c-0.1,0-0.2,0-0.3,0.1c-0.1,0.1-0.2,0.2-0.2,0.3c0,0.1-0.1,0.3,0.1,0.4c0.1,0.4,0.2,0.7,0.1,1.1
				c-0.1,0.4-0.1,0.8,0,1.2c0.1,0.2,0.1,0.4,0.1,0.6c0,0.2,0,0.4-0.1,0.6c0,0,0,0.1,0,0.1c-0.2,0-0.3,0.2-0.6,0.2
				c-0.3,0-0.5,0-0.8-0.1c-0.1-0.1-0.2-0.2-0.3-0.3c-0.2-0.4-0.1-0.7,0-1c0.1-0.3,0.1-0.5,0.1-0.8c0-0.3-0.1-0.5-0.2-0.7
				c-0.1-0.3-0.2-0.7-0.2-1.1c0-0.5,0-1,0-1.5c0-0.2,0.1-0.3,0-0.5c-0.1-0.1-0.1-0.3-0.2-0.5c-0.1-0.2-0.2-0.5-0.3-0.7
				c-0.1-0.1-0.1-0.3-0.2-0.4c-0.1-0.2-0.5-0.4-0.8-0.3c0,0-0.1,0-0.2,0c0.1,0.2,0.1,0.5,0.3,0.7c0.2,0.3,0.2,0.6,0.2,0.9
				c0.1,0.7,0,1.5,0,2.2c0,0.1,0,0.2,0,0.2c-0.2,0.4-0.4,0.6-0.7,0.7c-0.1,0-0.3,0-0.5,0c-0.1-0.2-0.3-0.3-0.3-0.4
				c-0.1-0.2-0.1-0.3-0.1-0.5c0-0.5-0.1-0.9-0.1-1.3c0-0.3,0-0.6-0.1-1c0-0.3-0.1-0.5,0-0.8c0-0.4,0-0.9,0-1.3
				c0-0.4-0.1-0.9-0.3-1.3c-0.1-0.2-0.3-0.3-0.5-0.4c-0.3-0.1-0.5-0.2-0.7-0.5c-0.3-0.4-0.6-0.7-0.9-1c-0.1-0.1-0.1-0.3-0.3-0.4
				c0-0.2-0.2-0.3-0.3-0.4c-0.1-0.1-0.3-0.2-0.3-0.4c0-0.2-0.3-0.2-0.2-0.4c-0.2-0.1-0.3-0.4-0.5-0.5c-0.1-0.1-0.2-0.2-0.4-0.2
				c-0.2-0.2-0.5-0.3-0.6-0.6c-0.2-0.1-0.3-0.4-0.4-0.5c-0.2-0.2-0.3-0.3-0.5-0.5c-0.1-0.2-0.3-0.3-0.4-0.5
				c-0.1-0.1-0.2-0.3-0.4-0.3c-0.1,0-0.2-0.1-0.3-0.2c0,0,0,0.1,0,0.1c0.3,0.2,0.4,0.5,0.5,0.8c0.1,0.2,0.1-0.5,0.3-0.4
				c0.3,0.3-0.1-0.5,0.2-0.2c-0.1,0.1,0.5,1.1,0.4,1.2c-0.2-0.2-0.4-0.4-0.7-0.6c-0.5-0.5-0.9-1-1.4-1.5c-0.2-0.2,0.3,0,0.1-0.3
				c0-0.1-0.5-0.3-0.5-0.5c0,0,0.1,0.4,0.1,0.3c0.1,0-0.3,0.1-0.2,0c0,0,0,0,0-0.1c-0.3-0.3-0.6-0.6-0.9-0.9
				c-0.1-0.1-0.2-0.1-0.3-0.2c-0.2-0.1-0.2-0.4-0.4-0.5c-0.1-0.1-0.1-0.2-0.2-0.3c-0.2,0.2,0-0.2-0.3,0c0-0.1-0.3,0-0.3,0
				c0.1-0.3,0-0.1-0.2-0.3c-0.1-0.1-0.2-0.3-0.4-0.3c-0.2-0.1-0.2-0.3-0.4-0.3c0,0,0,0-0.1,0c-0.2-0.2-0.5-0.4-0.7-0.6
				c-0.1,0-0.1-0.1-0.2-0.1c-0.1,0-0.1-0.1-0.2-0.2c0.1,0,0.1,0,0.2-0.1c-0.2-0.2-0.3-0.4-0.6-0.5c0,0-0.1,0-0.1-0.1
				c-0.1-0.2-0.3-0.4-0.5-0.6c0,0-0.1-0.1-0.1-0.2c-0.2-0.2-0.4-0.5-0.7-0.6c-0.3-0.2-0.6-0.5-0.8-0.8c-0.2-0.4-0.5-0.6-0.8-0.9
				c-0.3-0.2-0.5-0.4-0.7-0.7C193.5,30.7,193.4,30.4,193.3,30.1z"/>
			<path fill-rule="evenodd" clip-rule="evenodd" fill="#393637" d="M184.7,21.8c0.3,0.1,0.5,0.2,0.7,0.2c0.5,0.1,0.8,0.3,1.1,0.6
				c-0.2,0.2-0.4,0.4-0.7,0.3C185.4,22.7,185,22.3,184.7,21.8z"/>
		</g>
	</g>
	<path fill="#393637" d="M122.6,112.4c0,3.8-0.6,7.1-1.8,9.8c-1.2,2.7-2.8,5-5,6.7c-2.1,1.8-4.6,3-7.5,3.8c-2.9,0.8-6,1.2-9.4,1.2
		H84.4v23.2h-13V91.6H100c3.1,0,6,0.4,8.7,1.3c2.7,0.8,5.2,2.1,7.2,3.9c2.1,1.8,3.7,3.9,4.9,6.5C122,105.9,122.6,108.9,122.6,112.4z
		 M109.1,112.7c0-2.8-0.9-4.9-2.6-6.3c-1.7-1.3-4-2-7-2H84.4v16.7h15.3C106,121.1,109.1,118.3,109.1,112.7z"/>
	<path fill="#393637" d="M193.3,124.4c0,5-0.6,9.6-1.9,13.7c-1.3,4.2-3.1,7.7-5.6,10.7c-2.4,3-5.4,5.3-9,6.9
		c-3.5,1.7-7.5,2.5-12,2.5c-4.5,0-8.5-0.8-12-2.5c-3.5-1.7-6.5-4-9-6.9c-2.4-3-4.3-6.5-5.6-10.7c-1.3-4.2-1.9-8.7-1.9-13.7
		c0-5,0.6-9.6,1.9-13.7c1.3-4.2,3.1-7.7,5.6-10.7c2.4-3,5.4-5.3,9-6.9c3.5-1.7,7.5-2.5,12-2.5c4.5,0,8.5,0.8,12,2.5
		c3.5,1.7,6.5,4,9,6.9c2.4,3,4.3,6.5,5.6,10.7C192.7,114.9,193.3,119.4,193.3,124.4z M179.8,124.4c0-2.9-0.3-5.7-0.8-8.2
		c-0.6-2.5-1.5-4.7-2.7-6.6c-1.2-1.9-2.8-3.3-4.7-4.4c-1.9-1.1-4.2-1.6-6.8-1.6c-2.6,0-4.9,0.5-6.8,1.6c-1.9,1.1-3.5,2.5-4.7,4.4
		c-1.2,1.9-2.1,4.1-2.7,6.6c-0.6,2.5-0.8,5.3-0.8,8.2c0,2.9,0.3,5.7,0.8,8.2c0.6,2.5,1.5,4.7,2.7,6.6c1.2,1.9,2.8,3.3,4.7,4.4
		c1.9,1.1,4.2,1.6,6.8,1.6c2.6,0,4.9-0.5,6.8-1.6c1.9-1.1,3.5-2.5,4.7-4.4c1.2-1.9,2.1-4.1,2.7-6.6
		C179.5,130.1,179.8,127.4,179.8,124.4z"/>
	<path fill="#393637" d="M259.7,137.4c0,3.1-0.5,6-1.5,8.5c-1,2.6-2.6,4.8-4.7,6.6c-2.1,1.8-4.8,3.3-8,4.3c-3.2,1-7.1,1.5-11.6,1.5
		c-5.5,0-10.5-1.1-15-3.2c-4.5-2.1-8-5-10.5-8.7l9.5-8.4c2.3,2.7,4.9,4.6,7.7,5.8c2.8,1.2,5.9,1.7,9,1.7c3.9,0,6.8-0.6,8.7-1.7
		c1.8-1.1,2.8-2.9,2.8-5.4c0-1.1-0.2-2-0.6-2.8c-0.4-0.8-1.1-1.5-2.1-2.2c-1-0.7-2.5-1.3-4.5-2c-1.9-0.6-4.4-1.3-7.5-2
		c-3-0.7-5.8-1.5-8.3-2.4c-2.5-0.9-4.7-2.1-6.5-3.6c-1.8-1.4-3.2-3.2-4.2-5.4c-1-2.2-1.5-4.9-1.5-8.2c0-3,0.6-5.7,1.8-8.1
		c1.2-2.4,2.9-4.4,5-6c2.1-1.7,4.6-2.9,7.5-3.8c2.8-0.9,5.9-1.3,9.1-1.3c5.1,0,9.6,0.9,13.5,2.7c3.8,1.8,7.3,4.4,10.4,7.6l-9.5,9.2
		c-2.1-2.2-4.4-3.9-6.8-5c-2.4-1.2-5.1-1.7-8.1-1.7c-1.8,0-3.2,0.2-4.4,0.5c-1.2,0.3-2.2,0.8-2.9,1.4c-0.8,0.6-1.3,1.2-1.6,1.9
		c-0.3,0.7-0.5,1.4-0.5,2.2c0,1.1,0.2,1.9,0.6,2.7c0.4,0.7,1.1,1.4,2.1,1.9c1,0.6,2.3,1.1,4,1.6c1.7,0.5,3.8,1.1,6.5,1.7
		s5.2,1.4,7.8,2.2c2.6,0.8,4.9,2,7,3.5c2.1,1.5,3.8,3.4,5.1,5.7C259.1,130.9,259.7,133.8,259.7,137.4z"/>
	<path fill="#393637" d="M309.5,104.5v52.8h-13v-52.8h-18.8V91.6h50.7v12.8H309.5z"/>
	<path fill="#393637" d="M115.1,231.6c-1.3,3.2-3.1,6-5.4,8.2c-2.3,2.2-5.1,3.9-8.3,5c-3.2,1.1-6.7,1.7-10.4,1.7
		c-4.3,0-8.1-0.8-11.6-2.4c-3.5-1.6-6.4-3.8-8.9-6.7c-2.5-2.9-4.4-6.4-5.8-10.5c-1.4-4.1-2-8.7-2-13.9c0-4.9,0.7-9.5,2.1-13.6
		c1.4-4.1,3.4-7.6,5.9-10.6c2.5-2.9,5.6-5.2,9.1-6.9c3.5-1.6,7.4-2.5,11.7-2.5c3.3,0,6.3,0.4,8.9,1.1c2.6,0.7,4.8,1.8,6.8,3.2
		c2,1.4,3.7,3.1,5.1,5.1c1.5,2,2.7,4.2,3.8,6.7l-12.3,5.1c-0.6-1.2-1.3-2.3-2-3.3c-0.7-1-1.5-1.9-2.5-2.7c-1-0.7-2.1-1.3-3.4-1.8
		c-1.3-0.4-2.8-0.7-4.5-0.7c-2.4,0-4.6,0.5-6.5,1.5c-1.9,1-3.5,2.4-4.8,4.3c-1.3,1.8-2.3,4-3,6.5c-0.7,2.5-1,5.3-1,8.3
		c0,3,0.3,5.7,1,8.3c0.7,2.5,1.7,4.7,3,6.6c1.3,1.9,3,3.3,4.9,4.4c1.9,1.1,4.1,1.6,6.5,1.6c2.2,0,4.1-0.2,5.7-0.7
		c1.5-0.5,2.8-1.2,3.8-2c1-0.9,1.7-1.9,2.2-3.1c0.5-1.2,0.9-2.5,1.1-3.9H93.7V212H117v8.5C117,224.7,116.4,228.4,115.1,231.6z"/>
	<path fill="#393637" d="M175,245.8l-11.6-23.4h-13.1v23.4h-12.9v-64.9h30.1c3,0,5.9,0.4,8.6,1.3c2.7,0.8,5.1,2.1,7.1,3.8
		c2,1.7,3.6,3.9,4.8,6.4c1.2,2.6,1.8,5.6,1.8,9c0,4.9-1,8.9-3.1,12c-2.1,3.1-5.2,5.5-9.3,7.1l12.4,25.2H175z M176.5,201.8
		c0-2.9-0.8-5.1-2.5-6.3c-1.6-1.3-3.9-1.9-6.8-1.9h-17v16.6h17C173.4,210.2,176.5,207.4,176.5,201.8z"/>
	<path fill="#393637" d="M252.7,245.5l-5.1-14.5h-23.7l-5.1,14.5h-13.9l24.8-64.9h12.6l24.7,64.9H252.7z M239,207
		c-0.7-1.9-1.3-3.8-1.9-5.6c-0.6-1.8-1-3.3-1.3-4.5c-0.3,1.2-0.8,2.8-1.3,4.5c-0.6,1.8-1.2,3.6-1.9,5.6l-4.2,11.8h14.8L239,207z"/>
	<path fill="#393637" d="M334.7,213.1c0,5.7-0.9,10.6-2.8,14.7c-1.9,4.1-4.4,7.5-7.5,10.1c-3.1,2.6-6.7,4.6-10.7,5.8
		c-4,1.2-8.1,1.9-12.2,1.9h-19.4v-64.9h20.3c4.6,0,8.9,0.6,12.8,1.7c3.9,1.1,7.3,3,10.2,5.6c2.9,2.6,5.1,5.9,6.8,10.1
		C333.9,202.1,334.7,207.2,334.7,213.1z M321.3,213.1c0-6.6-1.5-11.5-4.5-14.8c-3-3.3-8-4.9-14.8-4.9h-6.9v39.5h6.4
		c3.4,0,6.4-0.5,8.9-1.4c2.5-1,4.6-2.3,6.2-4c1.6-1.7,2.8-3.8,3.6-6.2C320.9,218.7,321.3,216.1,321.3,213.1z"/>
	<path fill="#393637" d="M176.6,299.1L176.6,299.1c0-7.2,5.3-13,13-13c4.7,0,7.5,1.6,9.8,3.8l-3.5,4c-1.9-1.7-3.9-2.8-6.4-2.8
		c-4.2,0-7.2,3.5-7.2,7.8v0.1c0,4.3,3,7.8,7.2,7.8c2.9,0,4.6-1.1,6.6-2.9l3.5,3.5c-2.6,2.7-5.4,4.5-10.2,4.5
		C182.1,311.9,176.6,306.3,176.6,299.1z"/>
	<path fill="#393637" d="M203.2,295.2L203.2,295.2c0-5,4-9.1,9.4-9.1c5.4,0,9.4,4,9.4,9v0.1c0,5-4,9-9.4,9
		C207.2,304.2,203.2,300.2,203.2,295.2z M217.2,295.2L217.2,295.2c0-2.6-1.8-4.9-4.6-4.9c-2.8,0-4.5,2.2-4.5,4.7v0.1
		c0,2.6,1.8,4.8,4.6,4.8C215.5,299.9,217.2,297.8,217.2,295.2z"/>
	<circle fill="#393637" cx="212.6" cy="309.9" r="2"/>
	<polygon fill="#393637" points="155.7,299 23.7,299 23.7,38.1 155.7,38.1 155.7,34.4 20,34.4 20,302.8 155.7,302.8 	"/>
	<polygon fill="#393637" points="242.9,34.4 242.9,38.1 376.3,38.1 376.3,299 242.9,299 242.9,302.8 380,302.8 380,34.4 	"/>
</g>
</svg>
