<?xml version="1.0" standalone="no"?>
<!DOCTYPE svg PUBLIC "-//W3C//DTD SVG 1.1//EN" "http://www.w3.org/Graphics/SVG/1.1/DTD/svg11.dtd" >
<svg>
<metadata>
Created by FontForge 20130207 at Sun Feb  8 12:00:06 2015
 By Colin Flynn
Copyright (c) 2012, Agustina Mingote (agustinamingote@gmail.com), with Reserved Font Names "Gudea"
</metadata>
<defs>
<font id="Gudea-Italic" horiz-adv-x="950" >
  <font-face 
    font-family="Gudea-Italic"
    font-weight="400"
    font-style="italic"
    font-stretch="normal"
    units-per-em="2048"
    panose-1="2 0 0 0 0 0 0 0 0 0"
    ascent="1638"
    descent="-410"
    x-height="1024"
    cap-height="1434"
    bbox="-158 -489 1892 1991"
    underline-thickness="102"
    underline-position="-102"
    unicode-range="U+000C-FB02"
  />
<missing-glyph horiz-adv-x="389" 
 />
    <glyph glyph-name=".notdef" horiz-adv-x="389" 
 />
    <glyph glyph-name=".null" horiz-adv-x="0" 
 />
    <glyph glyph-name="nonmarkingreturn" horiz-adv-x="681" 
 />
    <glyph glyph-name="flecha0" horiz-adv-x="854" 
d="M594 -127l-518 688l710 684z" />
    <glyph glyph-name="space" unicode=" " horiz-adv-x="460" 
 />
    <glyph glyph-name="exclam" unicode="!" horiz-adv-x="491" 
d="M262 0h-137l27 190h137zM319 389h-137l146 1047h137z" />
    <glyph glyph-name="quotedbl" unicode="&#x22;" horiz-adv-x="696" 
d="M283 905h-140l76 531h139zM637 905h-139l75 531h140z" />
    <glyph glyph-name="numbersign" unicode="#" horiz-adv-x="1140" 
d="M838 952h-293l-103 -428h293zM1165 952h-192l-96 -428h180l-19 -133h-194l-90 -391h-140l93 391h-293l-92 -391h-142l92 391h-213l19 133h225l100 428h-219l19 133h229l82 349h139l-82 -349h293l84 349h137l-77 -349h176z" />
    <glyph glyph-name="dollar" unicode="$" horiz-adv-x="935" 
d="M561 1233q-84 -1 -141 -61q-58 -60 -58 -146t50 -134t122 -79t142 -65t120 -96t50 -152q0 -168 -102 -292t-271 -142l-27 -189h-120q25 182 26 184q-143 10 -268 101l57 102q135 -76 265 -76t216 71q85 71 85 195t-172 202q-72 32 -145 67t-123 98t-50 156q0 153 91 261
t224 114l25 178h121l-25 -178q109 -13 191 -45l33 -11l-43 -122l-91 32q-98 27 -182 27z" />
    <glyph glyph-name="percent" unicode="%" horiz-adv-x="1357" 
d="M473 1425q203 0 203 -249q0 -188 -74 -320t-231 -131q-195 0 -195 248t124 379q71 73 173 73zM461 1323q-128 0 -165 -240q-7 -51 -7 -98q0 -158 100 -158q125 0 166 236q8 51 8 94q0 166 -102 166zM1051 688q203 0 202 -250q-1 -198 -75 -324t-230 -126q-194 0 -194 248
t124 378q71 74 173 74zM967 90q86 0 130 102t44 230q-1 164 -103 164q-63 -6 -105 -71q-64 -100 -66 -262q-1 -163 100 -163zM1247 1409l-950 -1407h-143l950 1407h143z" />
    <glyph glyph-name="ampersand" unicode="&#x26;" horiz-adv-x="1392" 
d="M650 1321q-88 0 -158 -59t-70 -156q0 -60 26 -101t37 -55q10 -14 46 -58t44 -54q266 143 267 329q0 76 -52 115q-53 39 -140 39zM492 119q110 1 208 51t146 113l-320 401q-283 -133 -282 -344q0 -100 69 -161q69 -60 179 -60zM487 -14q-190 0 -290 90q-101 90 -101 248
t86 262q86 102 262 180q-90 96 -133 166t-43 139q0 175 118 279t278 104t241 -75q80 -75 80 -207t-79 -228q-79 -98 -253 -196l265 -336q75 128 106 327h133q-47 -235 -98 -340q-18 -37 -53 -98l223 -299h-185l-126 182q-74 -84 -194 -141t-237 -57z" />
    <glyph glyph-name="quotesingle" unicode="'" horiz-adv-x="342" 
d="M272 752h-137l76 530h137z" />
    <glyph glyph-name="parenleft" unicode="(" horiz-adv-x="520" 
d="M166 358q0 636 379 1207l119 -27q-356 -567 -357 -1171q0 -307 103 -609l-131 -24q-113 293 -113 624z" />
    <glyph glyph-name="parenright" unicode=")" horiz-adv-x="518" 
d="M311 932q0 307 -102 608l131 25q113 -293 113 -625q0 -635 -379 -1206l-119 26q356 567 356 1172z" />
    <glyph glyph-name="asterisk" unicode="*" horiz-adv-x="792" 
d="M768 1004l-74 -119l-196 166l-17 -293h-121l60 293l-242 -166l-43 108l258 129l-219 129l80 113l186 -168l23 293h121l-66 -293l242 166l41 -117l-256 -119z" />
    <glyph glyph-name="plus" unicode="+" horiz-adv-x="864" 
d="M842 537h-318l-55 -396h-139l55 396h-301l20 133h302l57 409h139l-57 -409h317z" />
    <glyph glyph-name="comma" unicode="," horiz-adv-x="448" 
d="M373 178l-285 -530l-84 33l236 546z" />
    <glyph glyph-name="hyphen" unicode="-" horiz-adv-x="530" 
d="M471 520h-350l20 154h351z" />
    <glyph glyph-name="period" unicode="." horiz-adv-x="337" 
d="M229 0h-137l31 217h137z" />
    <glyph glyph-name="slash" unicode="/" horiz-adv-x="905" 
d="M1014 1638l-871 -1935h-145l870 1935h146z" />
    <glyph glyph-name="zero" unicode="0" horiz-adv-x="1069" 
d="M502 121q84 0 154 56q120 96 181 321q62 225 62 454q0 369 -229 369q-102 0 -184 -83q-139 -142 -193 -480q-23 -137 -23 -266q1 -371 232 -371zM1049 987q-1 -179 -29 -352t-70 -273t-103 -187q-59 -87 -157 -137t-219 -50q-350 0 -350 469q0 268 47 451t106 291
q59 107 169 181t255 74q351 0 351 -467z" />
    <glyph glyph-name="one" unicode="1" horiz-adv-x="956" 
d="M25 0l18 133h360l162 1149l-350 -227l-51 114l422 265h137l-182 -1301h282l-18 -133h-780z" />
    <glyph glyph-name="two" unicode="2" horiz-adv-x="966" 
d="M590 1321q-140 0 -266 -33l-41 -10l-11 119q150 57 328 57t267 -75t89 -208q0 -175 -116 -372q-48 -80 -150 -199q-140 -162 -344 -367l-100 -100h588l-21 -133h-758l21 147q57 59 157 161q317 324 370 396q124 163 147 218q51 119 53 215q0 184 -213 184z" />
    <glyph glyph-name="three" unicode="3" horiz-adv-x="972" 
d="M487 801q127 0 213 95t86 239q0 186 -206 186q-60 0 -138 -22t-123 -42l-47 -20l-10 119q160 98 333 98t258 -78t85 -226t-80 -266q-80 -120 -223 -149q113 -10 181 -82t67 -194q0 -211 -134 -341t-376 -130q-90 0 -170 24t-117 49l-35 23l62 115q141 -78 287 -78t238 86
q91 86 91 211q0 248 -260 250h-174l18 133h174z" />
    <glyph glyph-name="four" unicode="4" horiz-adv-x="995" 
d="M559 0l37 268h-582l15 101l542 1065h148l-526 -1033h421l56 381h133l-55 -381h151l-18 -133h-152l-37 -268h-133z" />
    <glyph glyph-name="five" unicode="5" horiz-adv-x="1030" 
d="M448 123q156 1 252 111t97 270q0 233 -316 233l-243 2l141 695h657l-26 -134h-531l-80 -432q57 2 115 2q202 0 318 -87t116 -246q0 -229 -141 -389t-385 -160q-90 0 -176 26t-127 56l-39 26l57 109q156 -82 311 -82z" />
    <glyph glyph-name="six" unicode="6" horiz-adv-x="1060" 
d="M535 121q95 0 167 63q72 64 105 150t33 174q0 225 -236 225q-139 0 -297 -96q-14 -98 -14 -191q0 -325 242 -325zM652 866q152 0 244 -83q93 -83 93 -242q0 -236 -131 -395t-352 -158q-365 0 -365 438q0 395 147 697q73 151 198 241q126 90 290 90q72 0 140 -16t98 -33
l30 -19l-51 -122q-121 55 -254 55q-299 0 -405 -528q166 75 318 75z" />
    <glyph glyph-name="seven" unicode="7" horiz-adv-x="933" 
d="M178 1280l21 154h829l-20 -154l-742 -1280h-162l740 1280h-666z" />
    <glyph glyph-name="eight" unicode="8" horiz-adv-x="1060" 
d="M895 1114q0 96 -56 152t-163 55q-107 0 -197 -76t-90 -183t91 -183t200 -113q90 66 153 159q62 93 62 189zM499 117q126 0 227 82t101 209q0 92 -74 148q-75 56 -235 124q-112 -51 -190 -140q-78 -88 -78 -194t61 -168q62 -61 188 -61zM709 1454q160 0 249 -83t89 -209
t-71 -249t-183 -208q186 -111 186 -261q0 -204 -145 -330t-348 -126t-293 91q-91 91 -91 230t81 251t216 185q-158 98 -157 259q0 198 130 324t337 126z" />
    <glyph glyph-name="nine" unicode="9" horiz-adv-x="1026" 
d="M623 1321q-129 0 -211 -118t-82 -273q0 -221 223 -221q135 0 297 94v8q14 94 14 186q1 324 -241 324zM520 575q-162 0 -252 83t-90 241q0 239 128 397t347 158q185 0 273 -116t88 -310q0 -392 -138 -698q-71 -156 -198 -249t-295 -93q-71 0 -139 16t-99 33l-30 18l49 123
q121 -55 254 -55q301 0 403 528q-139 -76 -301 -76z" />
    <glyph glyph-name="colon" unicode=":" horiz-adv-x="399" 
d="M344 807h-137l31 217h137zM231 0h-137l31 217h137z" />
    <glyph glyph-name="semicolon" unicode=";" horiz-adv-x="509" 
d="M379 182l-283 -530l-86 33l244 546zM467 807h-139l30 217h140z" />
    <glyph glyph-name="less" unicode="&#x3c;" horiz-adv-x="972" 
d="M803 92l-658 459l17 117l786 460l-22 -163l-639 -355l538 -358z" />
    <glyph glyph-name="equal" unicode="=" horiz-adv-x="1069" 
d="M934 334h-793l19 133h792zM991 739h-792l18 133h793z" />
    <glyph glyph-name="greater" unicode="&#x3e;" horiz-adv-x="972" 
d="M895 553l-786 -459l22 158l637 358l-537 355l23 163l655 -460z" />
    <glyph glyph-name="question" unicode="?" horiz-adv-x="854" 
d="M383 0h-137l26 201h138zM576 1454q128 0 204 -70t76 -176q0 -108 -37 -184t-91 -130t-110 -106q-141 -131 -159 -262l-19 -129h-135l17 119q26 176 156 299q54 51 106 100q121 116 121 252q0 152 -181 152q-121 0 -229 -39l-4 119q157 55 285 55z" />
    <glyph glyph-name="at" unicode="@" horiz-adv-x="1673" 
d="M692 156q-180 0 -180 239q0 121 50 273t162 270t255 117q71 0 109 -25t59 -50q22 -25 27 -30l40 82h84l-239 -756q109 2 193 60q148 100 205 344q24 102 24 205q0 434 -461 434q-340 -1 -536 -275t-195 -712q0 -231 94 -340t299 -109h319l-12 -110q-160 -16 -334 -17
q-510 0 -510 541q0 370 131 653q70 150 171 260t254 176t339 66q571 0 572 -537q0 -337 -156 -545t-416 -208q-48 0 -73 4l4 135q-145 -145 -279 -145zM971 924q-98 0 -180 -94t-122 -210q-40 -118 -40 -217q0 -127 104 -127q63 0 115 35t147 131l125 396q-49 65 -85 76
q-36 10 -64 10z" />
    <glyph glyph-name="A" unicode="A" horiz-adv-x="1067" 
d="M758 586l-99 692l-297 -692h396zM991 0h-153l-66 453h-463l-190 -453h-144l623 1434h168z" />
    <glyph glyph-name="B" unicode="B" horiz-adv-x="1081" 
d="M594 834q119 0 207 80t88 202q0 184 -211 184h-236l-65 -466h217zM535 133q133 0 224 98t91 218t-69 187t-206 66h-217l-79 -569h256zM686 1434q174 0 261 -76t87 -216t-82 -246t-204 -120q120 -14 184 -95t63 -198q0 -211 -140 -347t-382 -136h-356l200 1434h369z" />
    <glyph glyph-name="C" unicode="C" horiz-adv-x="1077" 
d="M586 -12q-225 0 -342 145t-117 404q0 391 185 653t497 262q147 0 283 -59l-50 -127q-106 53 -236 53q-235 0 -362 -179q-161 -231 -161 -571q0 -211 81 -329q82 -118 244 -119q162 0 318 90l20 -117q-176 -106 -360 -106z" />
    <glyph glyph-name="D" unicode="D" horiz-adv-x="1193" 
d="M422 133q172 0 310 118t207 287q69 170 69 356t-108 296t-267 110h-184l-164 -1167h137zM1167 889q0 -162 -54 -320q-54 -159 -151 -285t-248 -205t-327 -79h-270l200 1434h328q244 0 383 -150t139 -395z" />
    <glyph glyph-name="E" unicode="E" horiz-adv-x="999" 
d="M811 0h-694l200 1434h695l-19 -134h-557l-63 -454h512l-19 -137h-512l-82 -576h557z" />
    <glyph glyph-name="F" unicode="F" horiz-adv-x="940" 
d="M1014 1434l-19 -134h-559l-63 -454h514l-19 -137h-514l-100 -709h-137l200 1434h697z" />
    <glyph glyph-name="G" unicode="G" horiz-adv-x="1191" 
d="M614 -12q-233 0 -362 152t-129 419q0 346 167 610q81 129 215 207t302 78t330 -74l-50 -127q-59 29 -157 49t-156 19q-127 0 -227 -72q-171 -123 -242 -416q-29 -120 -29 -233q0 -217 92 -348t233 -131q142 0 265 51l62 422h-271l19 133h407l-88 -629
q-188 -110 -381 -110z" />
    <glyph glyph-name="H" unicode="H" horiz-adv-x="1224" 
d="M1006 0h-140l95 678h-611l-94 -678h-139l200 1434h140l-86 -623h610l86 623h139z" />
    <glyph glyph-name="I" unicode="I" horiz-adv-x="473" 
d="M254 0h-137l200 1434h138z" />
    <glyph glyph-name="J" unicode="J" horiz-adv-x="630" 
d="M133 -14q-98 0 -178 22l18 129q86 -18 158 -18q162 0 209 348l119 846h-269l19 121h405l-141 -1002q-63 -446 -340 -446z" />
    <glyph glyph-name="K" unicode="K" horiz-adv-x="1056" 
d="M973 0h-174l-267 784l-194 -194l-82 -590h-139l200 1434h138l-90 -648l628 648h168l-520 -545z" />
    <glyph glyph-name="L" unicode="L" horiz-adv-x="872" 
d="M807 0h-690l200 1434h138l-183 -1301h553z" />
    <glyph glyph-name="M" unicode="M" horiz-adv-x="1357" 
d="M1204 0h-139l166 1176l-526 -799l-50 2l-303 795l-164 -1174h-137l201 1434h156l311 -789l547 789h139z" />
    <glyph glyph-name="N" unicode="N" horiz-adv-x="1251" 
d="M1032 -2h-151l-459 1149l-162 -1147h-143l200 1434h144l469 -1192l166 1192h137z" />
    <glyph glyph-name="O" unicode="O" horiz-adv-x="1196" 
d="M1024 877q0 193 -74 319t-206 125q-339 0 -445 -521q-25 -124 -25 -239q0 -197 72 -317t204 -119q132 0 225 78q162 136 223 439q26 124 26 235zM543 -10q-211 0 -316 148q-104 148 -104 397q0 333 143 611q72 138 197 223t287 85q213 0 318 -147t106 -396
q0 -332 -147 -612q-73 -139 -199 -224t-285 -85z" />
    <glyph glyph-name="P" unicode="P" horiz-adv-x="997" 
d="M479 733q408 0 408 354q0 111 -68 163l-383 53l-80 -570h123zM526 602h-188l-84 -602h-137l200 1434h308q403 0 403 -299q0 -249 -133 -391t-369 -142z" />
    <glyph glyph-name="Q" unicode="Q" horiz-adv-x="1200" 
d="M1026 877q0 193 -74 319t-219 127q-119 0 -212 -77q-93 -78 -143 -198q-102 -246 -102 -465t72 -341t206 -121q134 0 230 78l-135 188l107 100l125 -182q145 229 145 572zM123 539q0 314 140 596q71 141 198 230t291 89q213 0 319 -147t107 -394q0 -413 -215 -716
l151 -207l-104 -101l-148 207q-139 -111 -317 -110q-213 0 -318 151q-104 152 -104 402z" />
    <glyph glyph-name="R" unicode="R" horiz-adv-x="1112" 
d="M664 1303h-228l-69 -500h208q129 0 210 92q81 91 81 201q0 206 -202 207zM463 672h-115l-94 -672h-137l200 1434h373q332 0 332 -289q0 -145 -88 -275t-219 -147q79 -23 109 -65t63 -179l114 -479h-145l-115 459q-33 131 -89 172t-189 41z" />
    <glyph glyph-name="S" unicode="S" horiz-adv-x="1015" 
d="M627 1311q-117 0 -184 -71t-67 -167t57 -151q56 -55 136 -85t160 -66t136 -112t57 -194q0 -199 -138 -338t-354 -139q-106 0 -204 34t-160 78l61 117q160 -86 304 -86t242 80q97 80 97 211q0 90 -56 148t-135 92t-159 70t-136 113t-57 195q0 176 113 295t305 119
q148 0 316 -72l-50 -137q-2 0 -37 15t-116 33q-80 18 -131 18z" />
    <glyph glyph-name="T" unicode="T" horiz-adv-x="929" 
d="M348 0l182 1296h-362l18 138h856l-18 -138h-358l-183 -1296h-135z" />
    <glyph glyph-name="U" unicode="U" horiz-adv-x="1224" 
d="M559 -12q-379 0 -379 401q0 57 10 139l127 906h140l-129 -930q-8 -49 -9 -98q0 -137 67 -211t200 -74t228 99t122 284l129 930h141l-127 -906q-37 -268 -170 -404t-350 -136z" />
    <glyph glyph-name="V" unicode="V" horiz-adv-x="1007" 
d="M1133 1434l-598 -1434h-195l-166 1434h156l137 -1260l514 1260h152z" />
    <glyph glyph-name="W" unicode="W" horiz-adv-x="1382" 
d="M1509 1432l-508 -1432h-159l-72 831l-346 -831h-152l-100 1432h160l47 -1258l369 870h104l102 -870l410 1258h145z" />
    <glyph glyph-name="X" unicode="X" horiz-adv-x="1077" 
d="M989 0h-170l-237 645l-428 -645h-166l532 754l-295 680h176l215 -566l388 566h165l-489 -680z" />
    <glyph glyph-name="Y" unicode="Y" horiz-adv-x="1015" 
d="M1143 1434l-535 -789l-90 -645h-139l90 645l-297 789h154l233 -664l434 664h150z" />
    <glyph glyph-name="Z" unicode="Z" horiz-adv-x="935" 
d="M831 0h-808l18 127l754 1173h-592l18 134h754l-17 -117l-749 -1182h641z" />
    <glyph glyph-name="bracketleft" unicode="[" horiz-adv-x="626" 
d="M451 -410h-388l289 2048h383l-18 -133h-244l-252 -1784h248z" />
    <glyph glyph-name="backslash" unicode="\" horiz-adv-x="892" 
d="M580 -297l-326 1935h145l328 -1935h-147z" />
    <glyph glyph-name="bracketright" unicode="]" horiz-adv-x="626" 
d="M356 -410h-385l19 131h248l251 1784h-243l18 133h381z" />
    <glyph glyph-name="asciicircum" unicode="^" horiz-adv-x="1177" 
d="M762 1366l301 -803h-143l-230 654l-411 -654h-148l528 803h103z" />
    <glyph glyph-name="underscore" unicode="_" horiz-adv-x="792" 
d="M754 -483h-791l19 133h790z" />
    <glyph glyph-name="grave" unicode="`" horiz-adv-x="720" 
d="M563 1212l-114 -43l-203 271l149 61z" />
    <glyph glyph-name="a" unicode="a" horiz-adv-x="991" 
d="M580 911q-189 0 -265 -181q-65 -154 -65 -365q0 -246 153 -246q109 0 203 85t113 216l57 399q-96 92 -196 92zM561 1044q180 0 273 -131l32 111h82l-145 -1024h-80l-33 121l-26 -23q-133 -113 -287 -112q-270 0 -271 356q0 270 101 474q51 104 143 166t211 62z" />
    <glyph glyph-name="b" unicode="b" horiz-adv-x="1005" 
d="M809 670q0 108 -41 176t-111 67q-133 0 -295 -137l-77 -557q65 -103 221 -101q76 0 142 53q67 52 100 138t47 169q14 84 14 192zM686 1047q270 0 270 -357q0 -245 -93 -458q-48 -110 -142 -178t-219 -66q-70 0 -138 35t-112 77l-55 -100h-82l200 1434h140l-72 -512
q176 125 303 125z" />
    <glyph glyph-name="c" unicode="c" horiz-adv-x="798" 
d="M438 -10q-166 0 -248 102t-81 291q0 263 105 452q54 97 152 153t210 56q110 0 258 -49l-72 -118q-211 74 -329 -11t-157 -299q-14 -84 -14 -176q0 -268 209 -268q102 0 225 37l9 -121q-154 -49 -267 -49z" />
    <glyph glyph-name="d" unicode="d" horiz-adv-x="997" 
d="M551 911q-164 -1 -242 -151t-78 -379q0 -129 41 -197t111 -67q133 0 295 137l74 532q-31 51 -89 88t-112 37zM354 -16q-270 0 -270 356q0 332 122 517t333 185q125 0 235 -100l70 492h139l-203 -1434h-82l-30 117q-186 -133 -314 -133z" />
    <glyph glyph-name="e" unicode="e" horiz-adv-x="901" 
d="M377 590q150 0 253 47t103 143q0 131 -178 131q-209 0 -279 -315q49 -6 101 -6zM583 1044q129 0 207 -67q76 -69 76 -197t-125 -218t-374 -89q-51 0 -113 6q-8 -47 -8 -94q0 -143 69 -205q70 -61 169 -61t224 44q34 11 46 15l4 -119q-195 -72 -297 -71q-164 0 -259 95
t-96 294q0 117 28 231q65 266 227 374q93 62 222 62z" />
    <glyph glyph-name="f" unicode="f" horiz-adv-x="534" 
d="M576 1454q80 0 155 -27l-37 -110q-61 12 -88 12q-131 0 -149 -137l-23 -168h191l-19 -123h-188l-127 -921q-25 -174 -71 -280t-128 -189l-67 71q88 113 120 348l134 971h-142l19 123h139l24 176q21 134 99 194t158 60z" />
    <glyph glyph-name="g" unicode="g" horiz-adv-x="997" 
d="M762 688q0 100 -60 162t-124 61q-168 -1 -244 -151t-76 -396t154 -245q135 0 293 137l51 367q6 55 6 65zM115 342q0 330 127 516t327 186q156 0 238 -151l65 133h82l-147 -1069q-31 -221 -148 -331t-284 -109q-99 0 -186 36q-34 13 -101 44l41 108q145 -55 251 -55
t183 72q78 72 99 217l22 170l-12 -11q-156 -113 -287 -112q-270 0 -270 356z" />
    <glyph glyph-name="h" unicode="h" horiz-adv-x="1024" 
d="M768 737q0 178 -158 178q-139 0 -241 -98l-115 -817h-137l200 1434h136l-68 -492q45 35 71 52q76 50 195 50t189 -68t69 -196q0 -27 -4 -67l-100 -713h-137l94 668q6 37 6 69z" />
    <glyph glyph-name="i" unicode="i" horiz-adv-x="421" 
d="M430 1434l-24 -183h-138l25 183h137zM92 0l144 1024h137l-144 -1024h-137z" />
    <glyph glyph-name="j" unicode="j" horiz-adv-x="409" 
d="M-35 -418q88 111 123 348l154 1094h137l-148 -1044q-25 -176 -71 -280t-127 -189zM436 1434l-26 -181h-138l27 181h137z" />
    <glyph glyph-name="k" unicode="k" horiz-adv-x="937" 
d="M317 1434h138l-119 -844l457 434h174l-447 -416l324 -608h-156l-264 512l-115 -111l-55 -401h-137z" />
    <glyph glyph-name="l" unicode="l" horiz-adv-x="473" 
d="M117 0l200 1434h138l-201 -1434h-137z" />
    <glyph glyph-name="m" unicode="m" horiz-adv-x="1566" 
d="M1200 1044q125 0 197 -66t71 -192q0 -29 -4 -65l-100 -721h-135l92 657q4 25 4 66q0 92 -42 140t-114 48q-117 0 -247 -102q0 -57 -4 -88l-101 -721h-135l92 657q6 37 6 68q0 90 -42 138t-106 48q-116 0 -185 -49q-24 -16 -64 -49l-113 -813h-139l143 1024h91l8 -106
q49 41 79 61t89 43t125 22q174 0 235 -139q174 139 299 139z" />
    <glyph glyph-name="n" unicode="n" horiz-adv-x="1019" 
d="M920 782q0 -35 -7 -71l-98 -711h-137l92 666q6 37 6 69q0 178 -158 178q-128 0 -237 -100l-113 -813h-137l143 1024h88l9 -100q47 37 77 57t90 42q62 22 128 21q114 0 184 -68t70 -194z" />
    <glyph glyph-name="o" unicode="o" horiz-adv-x="954" 
d="M434 -12q-332 0 -332 420q0 274 127 455t351 181q164 0 250 -108t88 -350q0 -240 -126 -419t-358 -179zM561 911q-161 0 -239 -145q-78 -144 -78 -326t47 -251t155 -68q166 0 248 136q82 137 82 319t-52 258t-163 77z" />
    <glyph glyph-name="p" unicode="p" horiz-adv-x="1005" 
d="M840 645q0 131 -42 199t-106 68t-126 -28q-62 -26 -92 -48t-81 -66l-78 -545q31 -49 89 -78t116 -28q166 0 243 142t77 384zM717 1044q270 0 270 -354q0 -332 -115 -517t-340 -185q-127 0 -235 98l-80 -569h-139l211 1507h82l30 -117q186 137 316 137z" />
    <glyph glyph-name="q" unicode="q" horiz-adv-x="997" 
d="M414 -12q-133 0 -217 88t-84 278q0 291 112 491q113 200 334 199q129 0 250 -137l63 117h82l-211 -1507h-139l84 600l-26 -26q-70 -71 -160 -94q-41 -9 -88 -9zM532 911q-128 1 -200 -155t-72 -381q0 -254 191 -254q73 0 145 45t115 119l67 471q-27 63 -102 109
q-76 46 -144 46z" />
    <glyph glyph-name="r" unicode="r" horiz-adv-x="684" 
d="M618 903q-112 0 -241 -121l-109 -782h-137l143 1024h88l7 -121q98 78 161 110q63 31 126 31t87 -12h5l-41 -141q-33 12 -89 12z" />
    <glyph glyph-name="s" unicode="s" horiz-adv-x="804" 
d="M343 121q109 0 177 57t68 157t-144 155q-59 24 -117 49t-101 73q-42 49 -42 121q0 143 90 227t230 84q140 -1 246 -49l-43 -131q-11 6 -68 27q-58 20 -141 20q-170 0 -170 -155q0 -74 141 -131q59 -25 119 -55t100 -87q41 -57 41 -137q1 -162 -107 -260t-272 -98t-278 80
l49 114q113 -61 222 -61z" />
    <glyph glyph-name="t" unicode="t" horiz-adv-x="636" 
d="M313 213q0 -100 109 -100q29 0 94 12l4 -111q-177 -63 -290 17q-60 43 -60 141q0 12 4 49l96 680h-125l17 123h127l43 293h137l-43 -293h225l-16 -123h-227l-93 -651q-2 -12 -2 -37z" />
    <glyph glyph-name="u" unicode="u" horiz-adv-x="1001" 
d="M373 -12q-104 0 -163 65q-58 66 -58 187q0 39 6 82l98 702h137l-94 -678q-8 -70 -8 -90q1 -72 29 -104t95 -33q67 0 149 45t130 96l107 764h139l-143 -1024h-80l-31 121q-164 -133 -313 -133z" />
    <glyph glyph-name="v" unicode="v" horiz-adv-x="821" 
d="M907 1024l-450 -1024h-168l-162 1024h162l108 -860l353 860h157z" />
    <glyph glyph-name="w" unicode="w" horiz-adv-x="1251" 
d="M248 0l-125 1024h147l84 -862l308 862h143l78 -870l307 870h151l-395 -1024h-170l-74 809l-286 -809h-168z" />
    <glyph glyph-name="x" unicode="x" horiz-adv-x="802" 
d="M313 1024l144 -360l239 360h158l-340 -502l209 -522h-154l-147 406l-258 -406h-158l356 522l-200 502h151z" />
    <glyph glyph-name="y" unicode="y" horiz-adv-x="821" 
d="M309 -20l-166 1044h158l113 -860l356 860h154l-461 -1024q-90 -198 -178 -306t-213 -177l-39 106q82 47 160 138q77 92 116 219z" />
    <glyph glyph-name="z" unicode="z" horiz-adv-x="776" 
d="M197 1024h565l-17 -123l-509 -768h423l-18 -133h-588l17 123l510 768h-402z" />
    <glyph glyph-name="braceleft" unicode="{" horiz-adv-x="655" 
d="M268 623q113 -26 113 -157q0 -62 -8 -114l-45 -309q-12 -87 -12 -167t38 -118q39 -38 131 -39h31l-18 -131h-43q-281 0 -281 287q0 57 8 115l43 307q6 45 6 90q0 182 -141 182l14 95q98 0 144 62q45 62 65 198l43 307q55 410 392 409h38l-18 -131h-37q-115 -1 -165 -67
t-74 -232l-43 -313q-21 -141 -55 -195t-126 -79z" />
    <glyph glyph-name="bar" unicode="|" horiz-adv-x="534" 
d="M233 -416h-137l289 2054h137z" />
    <glyph glyph-name="braceright" unicode="}" horiz-adv-x="655" 
d="M281 1640q287 0 286 -297q0 -45 -10 -112l-43 -307q-8 -51 -8 -118q0 -144 143 -142l-14 -95q-170 0 -209 -272l-43 -307q-31 -217 -129 -309t-258 -93h-41l18 131h29q115 0 168 67t80 257l45 309q18 128 55 190t121 81q-63 20 -88 52t-25 88t13 134l43 313q10 82 10 152
q0 148 -164 147h-37l19 131h39z" />
    <glyph glyph-name="asciitilde" unicode="~" horiz-adv-x="972" 
d="M141 588q103 131 244 131q76 1 166 -61t160 -62t172 94l37 -59q-94 -168 -240 -168q-86 0 -177 60q-91 61 -162 61t-169 -92z" />
    <glyph glyph-name="uni00A0" unicode="&#xa0;" horiz-adv-x="737" 
 />
    <glyph glyph-name="exclamdown" unicode="&#xa1;" horiz-adv-x="491" 
d="M313 1217h138l-27 -191h-137zM256 827h137l-147 -1046h-137z" />
    <glyph glyph-name="cent" unicode="&#xa2;" horiz-adv-x="702" 
d="M254 512q0 -98 39 -143t125 -45t188 30l4 -129q-119 -37 -217 -37l-26 -188h-121l26 193q-158 59 -157 305q0 327 143 467q57 55 135 77l27 199h121l-27 -197q94 0 207 -38l-55 -123q-76 27 -148 26q-140 0 -202 -100t-62 -297z" />
    <glyph glyph-name="sterling" unicode="&#xa3;" horiz-adv-x="995" 
d="M633 1454q55 0 131 -29l-35 -110q-59 12 -104 12t-88 -40t-54 -113l-45 -324h312l-19 -133h-311l-80 -584h502l-19 -133h-639l101 717h-125l18 133h125l49 369q16 125 98 180t183 55z" />
    <glyph glyph-name="currency" unicode="&#xa4;" horiz-adv-x="1122" 
d="M643 950q-143 0 -228 -127t-85 -299q0 -118 59 -192t160 -74q149 0 239 119t91 297q1 124 -61 200t-175 76zM668 1083q160 0 252 -98l133 129l71 -94l-139 -135q31 -86 31 -184q0 -99 -30 -203t-79 -176l97 -127l-113 -109l-94 121q-111 -82 -269 -82t-243 90l-117 -113
l-72 95l127 118q-29 70 -28 172q0 102 25 211q26 109 71 181l-90 122l112 109l82 -111q113 84 273 84z" />
    <glyph glyph-name="yen" unicode="&#xa5;" horiz-adv-x="1124" 
d="M662 616h342l-19 -133h-342l-25 -178h343l-19 -133h-342l-25 -172h-139l25 172h-309l18 133h309l25 178h-309l18 133h309l-293 818h154l231 -684l437 684z" />
    <glyph glyph-name="brokenbar" unicode="&#xa6;" horiz-adv-x="579" 
d="M242 -397h-121l112 809h121zM416 846h-121l113 805h120z" />
    <glyph glyph-name="section" unicode="&#xa7;" horiz-adv-x="1114" 
d="M461 -188q127 0 195 60t69 146q0 86 -55 140q-55 53 -135 91t-160 78q-80 39 -135 107q-56 68 -56 168t68 190q68 89 203 185q-45 61 -45 137q0 166 99 253t269 87q107 0 205 -41l29 -14l-39 -127q-99 49 -197 49t-162 -49t-63 -146q0 -97 161 -193q68 -40 134 -84
t112 -112t48 -164q0 -96 -50 -171t-174 -162q84 -80 84 -195q0 -158 -120 -262t-316 -105q-70 0 -146 27t-122 62l53 133q119 -88 246 -88zM326 620q0 -72 58 -120t160 -96q102 -50 148 -87q139 94 161 167q11 38 11 100t-46 114q-46 50 -145 108t-136 87
q-111 -78 -161 -140q-50 -61 -50 -133z" />
    <glyph glyph-name="dieresis" unicode="&#xa8;" horiz-adv-x="944" 
d="M651 1452l29 217h129l-29 -217h-129zM319 1452l29 217h131l-28 -217h-132z" />
    <glyph glyph-name="copyright" unicode="&#xa9;" horiz-adv-x="1019" 
d="M479 63q119 -1 202 89q153 165 153 495q0 170 -52 252t-172 82t-202 -89q-152 -165 -152 -495q0 -170 52 -252t171 -82zM944 678q0 -428 -212 -618q-110 -99 -267 -99q-156 1 -238 107t-82 302q0 422 213 614q111 99 267 99q155 0 237 -106t82 -299zM512 223
q-186 0 -186 223q0 170 71 268q72 97 203 97q49 0 90 -12t45 -15l-41 -82q-2 0 -36 10t-58 9q-178 0 -178 -262q0 -147 119 -148q61 1 114 21l7 -84q-84 -25 -150 -25z" />
    <glyph glyph-name="ordfeminine" unicode="&#xaa;" horiz-adv-x="669" 
d="M244 971q0 -142 90 -142q46 -1 106 47t68 105l39 287q-47 43 -105 43q-199 0 -198 -340zM318 733q-84 1 -127 61q-42 60 -41 160q0 449 296 449q34 1 74 -17t60 -38l32 45h47l-88 -654h-51l-18 78q-100 -84 -184 -84zM541 479h-441l17 113h440z" />
    <glyph glyph-name="guillemotleft" unicode="&#xab;" horiz-adv-x="942" 
d="M442 199l-98 -39l-192 448l321 453l86 -39l-258 -410zM791 221l-99 -39l-182 426l305 428l84 -37l-244 -387z" />
    <glyph glyph-name="logicalnot" unicode="&#xac;" horiz-adv-x="954" 
d="M864 256h-139l41 295h-653l18 133h793z" />
    <glyph glyph-name="uni00AD" unicode="&#xad;" horiz-adv-x="737" 
d="M768 526h-737l18 133h737z" />
    <glyph glyph-name="registered" unicode="&#xae;" horiz-adv-x="1015" 
d="M506 434q119 0 202 89q152 163 152 495q0 170 -52 252t-171 82t-202 -89q-154 -165 -152 -495q0 -170 52 -252t171 -82zM971 1049q-1 -428 -213 -618q-110 -99 -266 -99t-238 106t-82 302t51 356t162 259t267 99t237 -106q82 -106 82 -299zM598 1126h-86l-23 -157h76
q47 -1 75 27t28 71q0 59 -70 59zM500 872h-23l-35 -247h-73l80 571h157q139 0 139 -119q1 -55 -37 -105t-90 -57q36 -10 48 -27t26 -71l51 -192h-86l-45 161q-14 50 -38 68t-74 18z" />
    <glyph glyph-name="macron" unicode="&#xaf;" horiz-adv-x="915" 
d="M244 1257l20 134h584l-21 -134h-583z" />
    <glyph glyph-name="degree" unicode="&#xb0;" horiz-adv-x="833" 
d="M303 1220q0 -200 179 -200q89 0 155 81q65 81 65 177t-45 148t-134 53q-89 0 -155 -81q-66 -82 -65 -178zM455 909q-117 0 -191 80t-74 205q0 170 104 283t257 112q117 0 191 -80t73 -204q0 -170 -103 -283t-257 -113z" />
    <glyph glyph-name="plusminus" unicode="&#xb1;" horiz-adv-x="927" 
d="M799 0h-758l18 133h758zM901 731h-317l-56 -395h-139l55 395h-301l19 133h301l57 410h139l-57 -410h318z" />
    <glyph glyph-name="twosuperior" unicode="&#xb2;" horiz-adv-x="802" 
d="M467 1268q-78 0 -131 -17l-21 -6l21 82q94 29 177 29t124 -36t41 -99t-25 -125t-82 -127q-57 -66 -95 -104t-118 -107h304l-31 -96h-424l10 65q4 4 52 49t111 106t99 114q81 119 80 182q0 90 -92 90z" />
    <glyph glyph-name="threesuperior" unicode="&#xb3;" horiz-adv-x="782" 
d="M410 1034q70 0 114 47t43 101q0 76 -98 75q-77 0 -137 -36l-21 -11l-4 95q76 51 182 51q170 0 170 -161t-151 -216q123 -20 123 -150q0 -104 -75 -173t-187 -68q-49 0 -93 13t-61 26l-18 12l36 88q49 -37 129 -37t124 34q46 34 46 99q0 102 -139 103h-71l14 108h74z" />
    <glyph glyph-name="acute" unicode="&#xb4;" horiz-adv-x="745" 
d="M365 1169l-103 43l250 289l129 -61z" />
    <glyph glyph-name="mu" unicode="&#xb5;" horiz-adv-x="1028" 
d="M332 256q0 -72 28 -104t96 -33q68 0 150 45t129 96l107 764h139l-143 -1024h-80l-31 121q-61 -45 -97 -68t-90 -45q-118 -47 -249 12l-72 -503h-137l211 1507h141l-94 -678q-8 -70 -8 -90z" />
    <glyph glyph-name="mu" unicode="&#x3bc;" horiz-adv-x="1028" 
d="M332 256q0 -72 28 -104t96 -33q68 0 150 45t129 96l107 764h139l-143 -1024h-80l-31 121q-61 -45 -97 -68t-90 -45q-118 -47 -249 12l-72 -503h-137l211 1507h141l-94 -678q-8 -70 -8 -90z" />
    <glyph glyph-name="paragraph" unicode="&#xb6;" horiz-adv-x="1103" 
d="M664 1454h489l-18 -123h-129l-246 -1747h-121l246 1747h-168l-246 -1747h-119l162 1149q-129 0 -202 83t-72 212q0 178 113 302q114 124 311 124z" />
    <glyph glyph-name="periodcentered" unicode="&#xb7;" horiz-adv-x="333" 
d="M262 506h-137l31 211h137z" />
    <glyph glyph-name="cedilla" unicode="&#xb8;" horiz-adv-x="694" 
d="M381 0h131q-14 -100 -45 -165t-121 -197l-82 63q63 111 84 160t33 139z" />
    <glyph glyph-name="onesuperior" unicode="&#xb9;" horiz-adv-x="698" 
d="M180 647l13 98h129l67 484l-168 -103l-22 101l209 129h92l-86 -611h129l-13 -98h-350z" />
    <glyph glyph-name="ordmasculine" unicode="&#xba;" horiz-adv-x="681" 
d="M467 1434q100 0 150 -66t51 -180q0 -184 -74 -320t-223 -135q-100 0 -151 66q-50 66 -50 180q0 183 74 319t223 136zM383 836q53 0 93 59q75 111 75 274t-96 162q-53 0 -93 -59q-74 -109 -75 -272q0 -164 96 -164zM555 479h-440l14 111h440z" />
    <glyph glyph-name="guillemotright" unicode="&#xbb;" horiz-adv-x="942" 
d="M584 1022l98 39l192 -449l-321 -452l-86 39l258 409zM236 999l98 39l182 -426l-305 -428l-84 37l242 387z" />
    <glyph glyph-name="onequarter" unicode="&#xbc;" horiz-adv-x="1630" 
d="M203 647l12 98h129l70 484l-166 -103l-23 101l205 129h92l-86 -611h129l-12 -98h-350zM1225 0l24 174h-375l13 84l397 616h107l-385 -598h258l32 236h95l-33 -238h125l-15 -100h-125l-24 -174h-94zM1352 1409l-951 -1409h-135l951 1409h135z" />
    <glyph glyph-name="onehalf" unicode="&#xbd;" horiz-adv-x="1503" 
d="M1264 516q0 90 -93 90q-39 0 -131 -16l-20 -6l20 82q94 28 178 28t124 -36t40 -99t-24 -125q-49 -124 -295 -338h303l-31 -96h-424l11 66q19 19 117 111t140 151q85 120 85 188zM203 647l12 98h127l70 484l-166 -103l-23 101l207 129h92l-86 -611h129l-12 -98h-350z
M1352 1409l-953 -1409h-133l951 1409h135z" />
    <glyph glyph-name="threequarters" unicode="&#xbe;" horiz-adv-x="1632" 
d="M403 1034q70 0 114 47t44 101q0 76 -98 75q-77 0 -137 -36l-21 -11l-4 95q76 51 182 51q170 0 170 -161t-151 -216q123 -20 123 -150q0 -104 -75 -173t-188 -68q-49 0 -92 13t-61 26l-19 12l37 88q49 -37 128 -37t125 34t46 99q0 102 -139 103h-72l15 108h73zM1350 1409
l-951 -1409h-135l953 1409h133zM1223 0l24 174h-373l13 84l395 616h107l-385 -598h258l32 236h97l-33 -238h125l-15 -100h-127l-24 -174h-94z" />
    <glyph glyph-name="questiondown" unicode="&#xbf;" horiz-adv-x="854" 
d="M557 1245h137l-26 -201h-138zM364 -209q-128 -1 -204 69t-76 178t37 183q37 76 91 130q54 55 110 107q141 131 159 261l19 129h135l-17 -119q-26 -176 -156 -299q-54 -51 -106 -100q-122 -116 -120 -252q0 -152 180 -152q121 0 229 39l4 -119q-157 -55 -285 -55z" />
    <glyph glyph-name="Agrave" unicode="&#xc0;" horiz-adv-x="1067" 
d="M680 1542h-113l-143 254h156zM758 586l-99 692l-297 -692h396zM991 0h-153l-66 453h-463l-190 -453h-144l623 1434h168z" />
    <glyph glyph-name="Aacute" unicode="&#xc1;" horiz-adv-x="1067" 
d="M573 1540l175 254h155l-217 -254h-113zM758 586l-99 692l-297 -692h396zM991 0h-153l-66 453h-463l-190 -453h-144l623 1434h168z" />
    <glyph glyph-name="Acircumflex" unicode="&#xc2;" horiz-adv-x="1067" 
d="M758 586l-99 692l-297 -692h396zM991 0h-153l-66 453h-463l-190 -453h-144l623 1434h168zM635 1802h88l221 -205l-43 -59l-239 154l-283 -154l-27 59z" />
    <glyph glyph-name="Atilde" unicode="&#xc3;" horiz-adv-x="1067" 
d="M641 586l-98 692l-297 -692h395zM874 0h-153l-66 453h-462l-191 -453h-143l622 1434h168zM749 1550q-35 0 -135 56t-125 57q-25 0 -55 -19t-45 -38l-18 -21l-52 53q36 48 96 96t96 48t134 -56t123 -57q49 0 100 60l17 18l55 -53q-36 -48 -95 -96q-60 -48 -96 -48z" />
    <glyph glyph-name="Adieresis" unicode="&#xc4;" horiz-adv-x="1067" 
d="M758 586l-99 692l-297 -692h396zM991 0h-153l-66 453h-463l-190 -453h-144l623 1434h168zM741 1546l29 217h129l-29 -217h-129zM410 1546l28 217h131l-28 -217h-131z" />
    <glyph glyph-name="Aring" unicode="&#xc5;" horiz-adv-x="1067" 
d="M666 1630q63 0 94 51t31 125q0 94 -86 95q-63 1 -95 -51t-30 -126q0 -94 86 -94zM715 1991q180 0 180 -176q0 -119 -57 -197t-183 -78q-180 0 -180 176q0 119 57 197q58 78 183 78zM758 586l-99 692l-297 -692h396zM991 0h-153l-66 453h-463l-190 -453h-144l623 1434h168
z" />
    <glyph glyph-name="AE" unicode="&#xc6;" horiz-adv-x="1568" 
d="M455 586h276l100 712zM1382 0h-733l64 453h-332l-262 -453h-144l803 1434h805l-18 -134h-594l-64 -454h547l-18 -137h-547l-82 -576h594z" />
    <glyph glyph-name="Ccedilla" unicode="&#xc7;" horiz-adv-x="1077" 
d="M127 537q0 391 185 653t497 262q147 0 283 -59l-50 -127q-106 53 -236 53q-235 0 -362 -179q-161 -231 -161 -571q0 -211 81 -329q82 -118 244 -119q162 0 318 90l20 -117q-141 -86 -289 -102q-15 -96 -45 -163t-120 -202l-82 64q61 104 82 155q20 51 32 146
q-195 18 -296 160t-101 385z" />
    <glyph glyph-name="Egrave" unicode="&#xc8;" horiz-adv-x="999" 
d="M711 1542h-113l-143 254h155zM811 0h-694l200 1434h695l-19 -134h-557l-63 -454h512l-19 -137h-512l-82 -576h557z" />
    <glyph glyph-name="Eacute" unicode="&#xc9;" horiz-adv-x="999" 
d="M502 1540l174 254h155l-217 -254h-112zM811 0h-694l200 1434h695l-19 -134h-557l-63 -454h512l-19 -137h-512l-82 -576h557z" />
    <glyph glyph-name="Ecircumflex" unicode="&#xca;" horiz-adv-x="1001" 
d="M580 1802h88l221 -205l-43 -59l-240 154l-282 -154l-27 59zM811 0h-694l200 1434h695l-19 -134h-557l-63 -454h512l-19 -137h-512l-82 -576h557z" />
    <glyph glyph-name="Edieresis" unicode="&#xcb;" horiz-adv-x="999" 
d="M715 1546l28 217h129l-28 -217h-129zM383 1546l29 217h131l-29 -217h-131zM811 0h-694l200 1434h695l-19 -134h-557l-63 -454h512l-19 -137h-512l-82 -576h557z" />
    <glyph glyph-name="Igrave" unicode="&#xcc;" horiz-adv-x="466" 
d="M438 1542h-112l-144 254h156zM293 0h-137l200 1434h138z" />
    <glyph glyph-name="Iacute" unicode="&#xcd;" horiz-adv-x="468" 
d="M236 1542l174 254h155l-217 -254h-112zM203 0h-137l200 1434h137z" />
    <glyph glyph-name="Icircumflex" unicode="&#xce;" horiz-adv-x="575" 
d="M397 1808h88l222 -204l-43 -60l-240 154l-283 -154l-26 60zM309 0h-137l201 1434h137z" />
    <glyph glyph-name="Idieresis" unicode="&#xcf;" horiz-adv-x="415" 
d="M416 1546l28 217h129l-28 -217h-129zM84 1546l29 217h131l-29 -217h-131zM223 0h-137l201 1434h137z" />
    <glyph glyph-name="Eth" unicode="&#xd0;" horiz-adv-x="1282" 
d="M473 133q172 0 310 118t207 287q69 170 69 356t-108 296t-267 110h-184l-74 -518h326l-21 -133h-323l-72 -516h137zM1219 889q-1 -162 -55 -320q-54 -159 -151 -285t-248 -205t-327 -79h-270l90 649h-154l21 133h151l93 652h327q244 0 384 -150t139 -395z" />
    <glyph glyph-name="Ntilde" unicode="&#xd1;" horiz-adv-x="1251" 
d="M915 -2h-151l-459 1149l-162 -1147h-143l201 1434h143l469 -1192l166 1192h137zM835 1550q-35 0 -135 56t-125 57q-25 0 -55 -19t-45 -38l-18 -21l-51 53q38 50 96 97q59 47 95 47t134 -56t123 -57q49 0 100 60l17 18l55 -53q-36 -48 -95 -96q-60 -48 -96 -48z" />
    <glyph glyph-name="Ograve" unicode="&#xd2;" horiz-adv-x="1193" 
d="M723 1542h-113l-143 254h156zM1024 877q0 193 -74 319t-206 125q-339 0 -445 -521q-25 -124 -25 -239q0 -197 72 -317t204 -119q132 0 225 78q162 136 223 439q26 124 26 235zM543 -10q-211 0 -316 148q-104 148 -104 397q0 333 143 611q72 138 197 223t287 85
q213 0 318 -147t106 -396q0 -332 -147 -612q-73 -139 -199 -224t-285 -85z" />
    <glyph glyph-name="Oacute" unicode="&#xd3;" horiz-adv-x="1193" 
d="M614 1542l174 254h156l-217 -254h-113zM1024 877q0 193 -74 319t-206 125q-339 0 -445 -521q-25 -124 -25 -239q0 -197 72 -317t204 -119q132 0 225 78q162 136 223 439q26 124 26 235zM543 -10q-211 0 -316 148q-104 148 -104 397q0 333 143 611q72 138 197 223t287 85
q213 0 318 -147t106 -396q0 -332 -147 -612q-73 -139 -199 -224t-285 -85z" />
    <glyph glyph-name="Ocircumflex" unicode="&#xd4;" horiz-adv-x="1193" 
d="M696 1808h88l222 -204l-43 -60l-240 154l-283 -154l-26 60zM1024 877q0 193 -74 319t-206 125q-339 0 -445 -521q-25 -124 -25 -239q0 -197 72 -317t204 -119q132 0 225 78q162 136 223 439q26 124 26 235zM543 -10q-211 0 -316 148q-104 148 -104 397q0 333 143 611
q72 138 197 223t287 85q213 0 318 -147t106 -396q0 -332 -147 -612q-73 -139 -199 -224t-285 -85z" />
    <glyph glyph-name="Otilde" unicode="&#xd5;" horiz-adv-x="1193" 
d="M629 1321q-339 0 -445 -521q-25 -124 -24 -239q0 -197 72 -317t217 -119q119 0 211 78q92 79 146 197q106 238 104 454q-1 216 -75 342t-206 125zM428 -10q-211 0 -315 148t-105 397q0 335 144 611q72 138 196 223q125 85 287 85q213 0 318 -147t106 -396
q0 -332 -147 -612q-72 -139 -198 -224t-286 -85zM790 1544q-36 0 -136 56t-124 57t-54 -19t-46 -41l-18 -18l-52 53q41 54 97 99q57 45 93 45t135 -56t135 -57q36 0 89 57l17 21l53 -53q-40 -54 -97 -99q-56 -45 -92 -45z" />
    <glyph glyph-name="Odieresis" unicode="&#xd6;" horiz-adv-x="1193" 
d="M803 1544l28 217h130l-29 -217h-129zM471 1544l29 217h131l-29 -217h-131zM1024 877q0 193 -74 319t-206 125q-339 0 -445 -521q-25 -124 -25 -239q0 -197 72 -317t204 -119q132 0 225 78q162 136 223 439q26 124 26 235zM543 -10q-211 0 -316 148q-104 148 -104 397
q0 333 143 611q72 138 197 223t287 85q213 0 318 -147t106 -396q0 -332 -147 -612q-73 -139 -199 -224t-285 -85z" />
    <glyph glyph-name="multiply" unicode="&#xd7;" horiz-adv-x="1122" 
d="M1124 1020l-430 -414l310 -411l-113 -109l-311 412l-412 -396l-72 95l414 395l-309 409l112 109l310 -410l430 414z" />
    <glyph glyph-name="Oslash" unicode="&#xd8;" horiz-adv-x="1196" 
d="M1024 877q0 213 -86 335l-483 -1067q43 -20 108 -20q119 0 212 78q162 136 223 439q26 124 26 235zM733 1321q-121 0 -215 -78q-155 -129 -219 -443q-25 -124 -25 -239q0 -229 88 -340l486 1073q-54 27 -115 27zM543 -10q-78 0 -150 22l-106 -235h-125l131 291
q-170 137 -170 469t143 609q72 138 197 223t287 85q84 0 157 -27l97 211h126l-122 -270q166 -137 166 -463t-147 -606q-73 -139 -199 -224t-285 -85z" />
    <glyph glyph-name="Ugrave" unicode="&#xd9;" horiz-adv-x="1224" 
d="M780 1544h-112l-144 254h156zM559 -12q-379 0 -379 401q0 57 10 139l127 906h140l-129 -930q-8 -49 -9 -98q0 -137 67 -211t200 -74t228 99t122 284l129 930h141l-127 -906q-37 -268 -170 -404t-350 -136z" />
    <glyph glyph-name="Uacute" unicode="&#xda;" horiz-adv-x="1224" 
d="M653 1542l174 254h156l-217 -254h-113zM559 -12q-379 0 -379 401q0 57 10 139l127 906h140l-129 -930q-8 -49 -9 -98q0 -137 67 -211t200 -74t228 99t122 284l129 930h141l-127 -906q-37 -268 -170 -404t-350 -136z" />
    <glyph glyph-name="Ucircumflex" unicode="&#xdb;" horiz-adv-x="1224" 
d="M713 1808h88l221 -204l-43 -60l-240 154l-282 -154l-27 60zM559 -12q-379 0 -379 401q0 57 10 139l127 906h140l-129 -930q-8 -49 -9 -98q0 -137 67 -211t200 -74t228 99t122 284l129 930h141l-127 -906q-37 -268 -170 -404t-350 -136z" />
    <glyph glyph-name="Udieresis" unicode="&#xdc;" horiz-adv-x="1224" 
d="M559 -12q-379 0 -379 401q0 57 10 139l127 906h140l-129 -930q-8 -49 -9 -98q0 -137 67 -211t200 -74t228 99t122 284l129 930h141l-127 -906q-37 -268 -170 -404t-350 -136zM819 1544l29 217h129l-29 -217h-129zM487 1544l29 217h131l-29 -217h-131z" />
    <glyph glyph-name="Yacute" unicode="&#xdd;" horiz-adv-x="1015" 
d="M571 1540l174 254h156l-217 -254h-113zM1130 1434l-534 -789l-90 -645h-139l90 645l-297 789h153l234 -664l434 664h149z" />
    <glyph glyph-name="Thorn" unicode="&#xde;" horiz-adv-x="1005" 
d="M569 1077h-168l-79 -569h122q201 0 299 82t99 272q0 115 -60 165t-213 50zM631 1208q172 0 267 -83t95 -220q0 -256 -130 -392t-371 -136h-189l-53 -377h-137l200 1434h138l-31 -226h211z" />
    <glyph glyph-name="germandbls" unicode="&#xdf;" horiz-adv-x="1046" 
d="M666 1454q178 0 265 -87t87 -224t-86 -243t-187 -118q101 -16 165 -97t65 -210q0 -229 -138 -358t-325 -129q-61 0 -117 10l15 108q204 0 316 92t112 267q0 96 -69 166t-202 71h-53l18 132h52q112 0 204 86t92 189t-54 157t-148 55q-150 0 -205 -73t-76 -228l-143 -1020
h-137l153 1090q27 188 123 276q95 88 273 88z" />
    <glyph glyph-name="agrave" unicode="&#xe0;" 
d="M645 1212l-115 -43l-202 271l149 61zM524 911q-191 0 -266 -181q-65 -154 -65 -365q0 -246 153 -246q109 0 203 85t113 216l57 399q-95 92 -195 92zM49 342q0 270 101 474q51 104 143 166t211 62q180 0 272 -131l33 111h82l-146 -1024h-79l-33 121l-27 -23
q-133 -113 -287 -112q-270 0 -270 356z" />
    <glyph glyph-name="aacute" unicode="&#xe1;" 
d="M618 1169l-102 43l250 289l129 -61zM524 911q-191 0 -266 -181q-65 -154 -65 -365q0 -246 153 -246q109 0 203 85t113 216l57 399q-95 92 -195 92zM49 342q0 270 101 474q51 104 143 166t211 62q180 0 272 -131l33 111h82l-146 -1024h-79l-33 121l-27 -23
q-133 -113 -287 -112q-270 0 -270 356z" />
    <glyph glyph-name="acircumflex" unicode="&#xe2;" 
d="M557 1458h88l221 -205l-43 -59l-239 154l-283 -154l-27 59zM524 911q-191 0 -266 -181q-65 -154 -65 -365q0 -246 153 -246q109 0 203 85t113 216l57 399q-95 92 -195 92zM49 342q0 270 101 474q51 104 143 166t211 62q180 0 272 -131l33 111h82l-146 -1024h-79l-33 121
l-27 -23q-133 -113 -287 -112q-270 0 -270 356z" />
    <glyph glyph-name="atilde" unicode="&#xe3;" 
d="M693 1188q-36 0 -134 56t-123 56q-24 0 -54 -19t-46 -40l-19 -18l-51 67q36 48 96 96t96 48t134 -56t123 -57q25 0 55 19t45 40l19 19l53 -53l-2 -15q-36 -48 -96 -96q-60 -47 -96 -47zM524 911q-191 0 -266 -181q-65 -154 -65 -365q0 -246 153 -246q109 0 203 85
t113 216l57 399q-95 92 -195 92zM49 342q0 270 101 474q51 104 143 166t211 62q180 0 272 -131l33 111h82l-146 -1024h-79l-33 121l-27 -23q-133 -113 -287 -112q-270 0 -270 356z" />
    <glyph glyph-name="adieresis" unicode="&#xe4;" 
d="M668 1217l28 217h129l-28 -217h-129zM336 1217l29 217h131l-29 -217h-131zM524 911q-191 0 -266 -181q-65 -154 -65 -365q0 -246 153 -246q109 0 203 85t113 216l57 399q-95 92 -195 92zM49 342q0 270 101 474q51 104 143 166t211 62q180 0 272 -131l33 111h82
l-146 -1024h-79l-33 121l-27 -23q-133 -113 -287 -112q-270 0 -270 356z" />
    <glyph glyph-name="aring" unicode="&#xe5;" 
d="M541 1221q63 0 94 51t31 125q0 94 -86 94q-62 0 -94 -51t-31 -125q0 -94 86 -94zM590 1581q180 0 180 -176q0 -119 -57 -197t-183 -78q-180 0 -180 177q0 119 58 197t182 77zM524 911q-191 0 -266 -181q-65 -154 -65 -365q0 -246 153 -246q109 0 203 85t113 216l57 399
q-95 92 -195 92zM49 342q0 270 101 474q51 104 143 166t211 62q180 0 272 -131l33 111h82l-146 -1024h-79l-33 121l-27 -23q-133 -113 -287 -112q-270 0 -270 356z" />
    <glyph glyph-name="ae" unicode="&#xe6;" horiz-adv-x="1456" 
d="M928 590q150 0 253 47t103 143q0 131 -178 131q-209 0 -279 -315q49 -6 101 -6zM530 911q-195 0 -270 -181q-65 -154 -65 -365q0 -246 153 -246q109 0 203 85t113 216l61 440q-91 51 -195 51zM322 -14q-270 0 -271 356q0 270 101 474q51 104 143 166t211 62
q182 0 276 -90l29 70h82l-8 -61q102 81 240 81t215 -68t77 -196t-125 -218t-374 -89q-51 0 -113 6q-8 -47 -8 -94q0 -143 69 -205q70 -61 170 -61t176 28q12 3 46 15t47 16l4 -119q-195 -72 -297 -71q-240 0 -318 186l4 29q-160 -217 -376 -217z" />
    <glyph glyph-name="ccedilla" unicode="&#xe7;" horiz-adv-x="798" 
d="M109 383q0 263 105 452q54 97 152 153t210 56q110 0 258 -49l-72 -118q-211 74 -329 -11t-157 -299q-14 -84 -14 -176q0 -268 209 -268q102 0 225 37l9 -121q-119 -39 -211 -47q-14 -96 -45 -165t-121 -200l-82 64q68 111 90 162q23 51 35 143q-262 39 -262 387z" />
    <glyph glyph-name="egrave" unicode="&#xe8;" horiz-adv-x="901" 
d="M377 590q150 0 253 47t103 143q0 131 -178 131q-209 0 -279 -315q49 -6 101 -6zM583 1044q129 0 207 -67q76 -69 76 -197t-125 -218t-374 -89q-51 0 -113 6q-8 -47 -8 -94q0 -143 69 -205q70 -61 169 -61t224 44q34 11 46 15l4 -119q-195 -72 -297 -71q-164 0 -259 95
t-96 294q0 117 28 231q65 266 227 374q93 62 222 62zM647 1212l-115 -43l-202 271l149 61z" />
    <glyph glyph-name="eacute" unicode="&#xe9;" horiz-adv-x="901" 
d="M377 590q150 0 253 47t103 143q0 131 -178 131q-209 0 -279 -315q49 -6 101 -6zM583 1044q129 0 207 -67q76 -69 76 -197t-125 -218t-374 -89q-51 0 -113 6q-8 -47 -8 -94q0 -143 69 -205q70 -61 169 -61t224 44q34 11 46 15l4 -119q-195 -72 -297 -71q-164 0 -259 95
t-96 294q0 117 28 231q65 266 227 374q93 62 222 62zM592 1169l-103 43l250 289l129 -61z" />
    <glyph glyph-name="ecircumflex" unicode="&#xea;" horiz-adv-x="901" 
d="M573 1458h89l221 -205l-43 -59l-240 154l-283 -154l-26 59zM377 590q150 0 253 47t103 143q0 131 -178 131q-209 0 -279 -315q49 -6 101 -6zM583 1044q129 0 207 -67q76 -69 76 -197t-125 -218t-374 -89q-51 0 -113 6q-8 -47 -8 -94q0 -143 69 -205q70 -61 169 -61
t224 44q34 11 46 15l4 -119q-195 -72 -297 -71q-164 0 -259 95t-96 294q0 117 28 231q65 266 227 374q93 62 222 62z" />
    <glyph glyph-name="edieresis" unicode="&#xeb;" horiz-adv-x="901" 
d="M680 1219l29 217h129l-29 -217h-129zM348 1219l29 217h131l-29 -217h-131zM377 590q150 0 253 47t103 143q0 131 -178 131q-209 0 -279 -315q49 -6 101 -6zM583 1044q129 0 207 -67q76 -69 76 -197t-125 -218t-374 -89q-51 0 -113 6q-8 -47 -8 -94q0 -143 69 -205
q70 -61 169 -61t224 44q34 11 46 15l4 -119q-195 -72 -297 -71q-164 0 -259 95t-96 294q0 117 28 231q65 266 227 374q93 62 222 62z" />
    <glyph glyph-name="igrave" unicode="&#xec;" horiz-adv-x="417" 
d="M322 1200l-115 -43l-203 270l150 62zM106 0l144 1024h133l-143 -1024h-134z" />
    <glyph glyph-name="iacute" unicode="&#xed;" horiz-adv-x="417" 
d="M293 1169l-103 43l250 289l129 -61zM106 0l144 1024h133l-143 -1024h-134z" />
    <glyph glyph-name="icircumflex" unicode="&#xee;" horiz-adv-x="421" 
d="M231 1458h88l222 -205l-43 -59l-240 154l-283 -154l-26 59zM106 0l144 1024h137l-143 -1024h-138z" />
    <glyph glyph-name="idieresis" unicode="&#xef;" horiz-adv-x="421" 
d="M340 1217l29 217h129l-29 -217h-129zM8 1217l29 217h131l-29 -217h-131zM106 0l144 1024h137l-143 -1024h-138z" />
    <glyph glyph-name="eth" unicode="&#xf0;" horiz-adv-x="1056" 
d="M981 656q0 -170 -52 -322t-166 -249q-113 -97 -273 -97t-244 103t-84 290q0 664 497 666l-149 200l-219 -125l-60 82l226 129q-121 127 -146 148l107 71l145 -157l223 118l60 -77l-225 -119q213 -262 299 -397q61 -94 61 -264zM616 907q-162 0 -236 -148t-75 -374
q0 -264 203 -264q158 -1 243 149t85 377q-1 260 -220 260z" />
    <glyph glyph-name="ntilde" unicode="&#xf1;" horiz-adv-x="1021" 
d="M765 1186q-36 0 -134 56t-123 56q-48 0 -102 -57l-17 -20l-51 67q35 47 95 96q60 48 96 48q37 0 135 -56t122 -57q24 0 55 19q30 19 48 38l16 21l53 -54l-2 -14q-38 -50 -96 -97q-59 -46 -95 -46zM920 782q0 -35 -7 -71l-98 -711h-137l92 666q6 37 6 69q0 178 -158 178
q-129 0 -237 -100l-113 -813h-137l143 1024h88l9 -100q47 37 77 57t90 42q62 22 128 21q114 0 184 -68t70 -194z" />
    <glyph glyph-name="ograve" unicode="&#xf2;" horiz-adv-x="954" 
d="M678 1212l-115 -43l-203 271l150 61zM434 -12q-332 0 -332 420q0 274 127 455t351 181q164 0 250 -108t88 -350q0 -240 -126 -419t-358 -179zM561 911q-161 0 -239 -145q-78 -144 -78 -326t47 -251t155 -68q166 0 248 136q82 137 82 319t-52 258t-163 77z" />
    <glyph glyph-name="oacute" unicode="&#xf3;" horiz-adv-x="954" 
d="M580 1169l-103 43l250 289l129 -61zM434 -12q-332 0 -332 420q0 274 127 455t351 181q164 0 250 -108t88 -350q0 -240 -126 -419t-358 -179zM561 911q-161 0 -239 -145q-78 -144 -78 -326t47 -251t155 -68q166 0 248 136q82 137 82 319t-52 258t-163 77z" />
    <glyph glyph-name="ocircumflex" unicode="&#xf4;" horiz-adv-x="954" 
d="M434 -12q-332 0 -332 420q0 274 127 455t351 181q164 0 250 -108t88 -350q0 -240 -126 -419t-358 -179zM561 911q-161 0 -239 -145q-78 -144 -78 -326t47 -251t155 -68q166 0 248 136q82 137 82 319t-52 258t-163 77zM598 1458h88l221 -205l-43 -59l-239 154l-283 -154
l-27 59z" />
    <glyph glyph-name="otilde" unicode="&#xf5;" horiz-adv-x="954" 
d="M734 1188q-36 0 -134 56t-123 56t-55 -19t-45 -40l-19 -18l-51 67q36 48 96 96t96 48t134 -56t123 -57q24 0 54 19t46 40l18 19l54 -53l-2 -15q-36 -48 -96 -96q-60 -47 -96 -47zM434 -12q-332 0 -332 420q0 274 127 455t351 181q164 0 250 -108t88 -350
q0 -240 -126 -419t-358 -179zM561 911q-161 0 -239 -145q-78 -144 -78 -326t47 -251t155 -68q166 0 248 136q82 137 82 319t-52 258t-163 77z" />
    <glyph glyph-name="odieresis" unicode="&#xf6;" horiz-adv-x="954" 
d="M434 -12q-332 0 -332 420q0 274 127 455t351 181q164 0 250 -108t88 -350q0 -240 -126 -419t-358 -179zM561 911q-161 0 -239 -145q-78 -144 -78 -326t47 -251t155 -68q166 0 248 136q82 137 82 319t-52 258t-163 77zM709 1217l28 217h129l-28 -217h-129zM377 1217
l29 217h131l-29 -217h-131z" />
    <glyph glyph-name="divide" unicode="&#xf7;" horiz-adv-x="966" 
d="M909 467h-794l18 133h795zM639 807h-139l30 217h140zM526 0h-139l31 217h139z" />
    <glyph glyph-name="oslash" unicode="&#xf8;" horiz-adv-x="954" 
d="M776 598q0 51 -6 94l-467 -524q49 -51 143 -51q166 0 248 137t82 344zM561 915q-84 0 -147 -43q-64 -42 -100 -116q-70 -142 -70 -344q0 -72 10 -133l481 538q-51 98 -174 98zM434 -12q-141 0 -219 69l-129 -145l-84 90l141 160q-41 94 -41 246q0 274 127 455t351 181
q164 0 249 -108l160 180l96 -78l-194 -221q27 -82 27 -205q0 -266 -126 -445t-358 -179z" />
    <glyph glyph-name="ugrave" unicode="&#xf9;" horiz-adv-x="1021" 
d="M690 1212l-115 -43l-202 271l149 61zM391 -12q-104 0 -163 65q-58 66 -58 187q0 39 6 82l98 702h138l-95 -678q-8 -70 -8 -90q0 -72 29 -104q30 -32 96 -33q66 0 149 45t130 96l106 764h139l-143 -1024h-80l-30 121q-164 -133 -314 -133z" />
    <glyph glyph-name="uacute" unicode="&#xfa;" horiz-adv-x="1021" 
d="M571 1169l-102 43l250 289l129 -61zM391 -12q-104 0 -163 65q-58 66 -58 187q0 39 6 82l98 702h138l-95 -678q-8 -70 -8 -90q0 -72 29 -104q30 -32 96 -33q66 0 149 45t130 96l106 764h139l-143 -1024h-80l-30 121q-164 -133 -314 -133z" />
    <glyph glyph-name="ucircumflex" unicode="&#xfb;" horiz-adv-x="1021" 
d="M561 1458h88l221 -205l-43 -59l-239 154l-283 -154l-26 59zM391 -12q-104 0 -163 65q-58 66 -58 187q0 39 6 82l98 702h138l-95 -678q-8 -70 -8 -90q0 -72 29 -104q30 -32 96 -33q66 0 149 45t130 96l106 764h139l-143 -1024h-80l-30 121q-164 -133 -314 -133z" />
    <glyph glyph-name="udieresis" unicode="&#xfc;" horiz-adv-x="1021" 
d="M670 1217l28 217h129l-28 -217h-129zM338 1217l29 217h131l-29 -217h-131zM391 -12q-104 0 -163 65q-58 66 -58 187q0 39 6 82l98 702h138l-95 -678q-8 -70 -8 -90q0 -72 29 -104q30 -32 96 -33q66 0 149 45t130 96l106 764h139l-143 -1024h-80l-30 121
q-164 -133 -314 -133z" />
    <glyph glyph-name="yacute" unicode="&#xfd;" horiz-adv-x="819" 
d="M524 1169l-102 43l250 289l129 -61zM309 -20l-166 1044h158l113 -860l356 860h154l-461 -1024q-90 -198 -178 -306t-213 -177l-39 106q82 47 160 138q77 92 116 219z" />
    <glyph glyph-name="thorn" unicode="&#xfe;" horiz-adv-x="1005" 
d="M379 776l-78 -557q31 -49 88 -75t117 -25q166 1 245 151t78 379q0 135 -35 200q-36 65 -120 64q-133 0 -295 -137zM702 1047q270 0 271 -357q0 -334 -122 -518t-333 -184q-135 0 -237 102l-80 -573h-138l271 1917h139l-74 -512q180 125 303 125z" />
    <glyph glyph-name="ydieresis" unicode="&#xff;" horiz-adv-x="819" 
d="M143 1024h158l113 -860l356 860h154l-461 -1024q-90 -198 -178 -306t-213 -177l-39 106q82 47 160 138t116 219zM674 1221l28 217h129l-28 -217h-129zM342 1221l29 217h131l-29 -217h-131z" />
    <glyph glyph-name="hbar" unicode="&#x127;" horiz-adv-x="1024" 
d="M768 737q0 178 -158 178q-139 0 -241 -98l-115 -817h-139l168 1198h-156l16 113h156l16 123h138l-17 -123h291l-16 -113h-291l-35 -256q45 35 71 52q76 50 195 50t189 -68t69 -196q0 -27 -4 -67l-100 -713h-137l94 668q6 37 6 69z" />
    <glyph glyph-name="Itilde" unicode="&#x128;" horiz-adv-x="473" 
d="M254 0h-137l200 1434h138zM482 1552q-36 0 -134 56t-123 57q-25 0 -55 -19t-45 -38l-19 -21l-51 68q37 49 96 96q60 47 96 47t134 -56t123 -56q24 0 54 19t46 38l19 20l53 -53l-2 -14q-36 -48 -96 -96t-96 -48z" />
    <glyph glyph-name="itilde" unicode="&#x129;" horiz-adv-x="419" 
d="M407 1202q-37 0 -135 56t-122 56t-55 -18q-30 -20 -46 -39l-18 -20l-51 68q38 51 97 97q58 46 94 46t134 -56t123 -56q24 0 54 18q30 20 46 39l19 20l53 -53l-2 -14q-36 -48 -95 -96q-60 -48 -96 -48zM106 0l144 1024h137l-143 -1024h-138z" />
    <glyph glyph-name="dotlessi" unicode="&#x131;" horiz-adv-x="421" 
d="M106 0l144 1024h137l-143 -1024h-138z" />
    <glyph glyph-name="ij" unicode="&#x133;" horiz-adv-x="829" 
d="M385 -418q88 111 123 348l154 1094h137l-148 -1044q-25 -176 -71 -280t-127 -189zM856 1434l-27 -181h-137l27 181h137zM430 1434l-24 -183h-138l25 183h137zM92 0l144 1024h137l-144 -1024h-137z" />
    <glyph glyph-name="Jcircumflex" unicode="&#x134;" horiz-adv-x="632" 
d="M418 1802h88l221 -205l-43 -59l-240 154l-282 -154l-27 59zM133 -14q-98 0 -178 22l18 129q86 -18 158 -18q162 0 209 348l119 846h-269l19 121h405l-141 -1002q-63 -446 -340 -446z" />
    <glyph glyph-name="jcircumflex" unicode="&#x135;" horiz-adv-x="409" 
d="M240 1458h88l221 -205l-43 -59l-240 154l-282 -154l-27 59zM47 -489l-67 71q88 111 122 348l154 1094h137l-147 -1044q-25 -174 -71 -280t-128 -189z" />
    <glyph glyph-name="kcedilla" unicode="&#x137;" horiz-adv-x="937" 
d="M317 1434h138l-119 -844l457 434h174l-447 -416l324 -608h-156l-264 512l-115 -111l-55 -401h-137zM438 -82h131q-14 -100 -45 -165t-121 -197l-81 63q63 111 84 160q20 49 32 139z" />
    <glyph glyph-name="kgreenlandic" unicode="&#x138;" horiz-adv-x="937" 
d="M274 1024h138l-62 -434l457 434h174l-446 -416l323 -608h-156l-264 512l-114 -111l-56 -401h-137z" />
    <glyph glyph-name="ldot" unicode="&#x140;" horiz-adv-x="708" 
d="M643 506h-137l31 211h137zM117 0l200 1434h138l-201 -1434h-137z" />
    <glyph glyph-name="Lslash" unicode="&#x141;" horiz-adv-x="784" 
d="M242 707l-166 -103l20 148l166 100l82 582h139l-71 -516l221 135l-21 -148l-221 -131l-90 -639h395l-18 -135h-535z" />
    <glyph glyph-name="lslash" unicode="&#x142;" horiz-adv-x="559" 
d="M387 850l-119 -850h-129l111 782l-168 -102l20 147l168 101l70 506h129l-61 -441l221 135l-21 -147z" />
    <glyph glyph-name="Nacute" unicode="&#x143;" horiz-adv-x="1251" 
d="M690 1540l174 254h156l-217 -254h-113zM1032 -2h-151l-459 1149l-162 -1147h-143l200 1434h144l469 -1192l166 1192h137z" />
    <glyph glyph-name="nacute" unicode="&#x144;" horiz-adv-x="1021" 
d="M575 1169l-102 43l250 289l129 -61zM920 782q0 -35 -7 -71l-98 -711h-137l92 666q6 37 6 69q0 178 -158 178q-128 0 -237 -100l-113 -813h-137l143 1024h88l9 -100q47 37 77 57t90 42q62 22 128 21q114 0 184 -68t70 -194z" />
    <glyph glyph-name="OE" unicode="&#x152;" horiz-adv-x="1609" 
d="M729 1300q-115 0 -206 -70t-143 -180q-108 -230 -108 -487q0 -195 73 -313t218 -119h195l164 1169h-193zM543 0q-213 0 -318 145q-104 145 -104 392q0 354 147 614q74 129 197 206t278 77h877l-18 -134h-555l-64 -454h510l-18 -137h-510l-82 -576h555l-19 -133h-876z" />
    <glyph glyph-name="oe" unicode="&#x153;" horiz-adv-x="1568" 
d="M1044 590q150 0 253 47t104 143q0 131 -178 131q-209 0 -279 -315q49 -6 100 -6zM565 911q-161 0 -239 -145q-78 -144 -78 -326t47 -251t156 -68q165 0 247 136q82 137 82 319t-52 258t-163 77zM106 408q0 274 127 455t355 181t301 -210q131 211 352 210q139 0 216 -68
t77 -196t-125 -218t-375 -89q-51 0 -112 6q-8 -47 -9 -94q0 -143 70 -205t169 -61q99 0 223 44q34 11 46 15l4 -119q-195 -72 -297 -71q-246 0 -321 194q-135 -195 -369 -194q-332 0 -332 420z" />
    <glyph glyph-name="Racute" unicode="&#x154;" horiz-adv-x="1112" 
d="M573 1540l175 254h155l-217 -254h-113zM575 803q129 0 210 92q81 91 81 201q0 204 -202 207h-228l-69 -500h208zM690 1434q332 0 332 -289q0 -145 -88 -275t-219 -147q79 -23 109 -65t63 -179l114 -479h-145l-115 459q-33 131 -89 172t-189 41h-115l-94 -672h-137
l200 1434h373z" />
    <glyph glyph-name="Rcommaaccent" unicode="&#x156;" horiz-adv-x="1112" 
d="M512 -82h131q-14 -100 -45 -165t-121 -197l-82 63q63 111 84 160t33 139zM664 1303h-228l-69 -500h208q129 0 210 92q81 91 81 201q0 206 -202 207zM463 672h-115l-94 -672h-137l200 1434h373q332 0 332 -289q0 -145 -88 -275t-219 -147q79 -23 109 -65t63 -179l114 -479
h-145l-115 459q-33 131 -89 172t-189 41z" />
    <glyph glyph-name="rcommaaccent" unicode="&#x157;" horiz-adv-x="684" 
d="M618 903q-112 0 -241 -121l-109 -782h-137l143 1024h88l7 -121q98 78 161 110q63 31 126 31t87 -12h5l-41 -141q-33 12 -89 12zM172 -82h131q-14 -100 -45 -165t-121 -197l-82 63q63 111 84 160t33 139z" />
    <glyph glyph-name="Rcaron" unicode="&#x158;" horiz-adv-x="1110" 
d="M545 1300h-228l-69 -499h209q129 0 210 92q81 91 81 201q0 206 -203 206zM344 670h-115l-94 -672h-137l201 1434h372q332 0 332 -289q0 -145 -88 -275t-219 -147q80 -23 110 -65t62 -179l115 -479h-146l-114 459q-33 131 -89 172q-57 41 -190 41zM672 1583h-88l-222 205
l44 59l239 -153l283 153l26 -59z" />
    <glyph glyph-name="rcaron" unicode="&#x159;" horiz-adv-x="684" 
d="M526 903q-112 0 -241 -121l-109 -782h-137l143 1024h88l6 -121q98 78 162 110q64 31 126 31q63 0 87 -12h4l-41 -141q-33 12 -88 12zM508 1206h-88l-221 205l45 59l237 -153l285 153l25 -59z" />
    <glyph glyph-name="Scaron" unicode="&#x160;" horiz-adv-x="1015" 
d="M508 1311q-118 0 -184 -71t-66 -167q0 -165 193 -236q79 -30 159 -66t136 -112t57 -194q0 -199 -138 -338t-354 -139q-107 0 -205 34t-159 78l61 117q160 -86 304 -86t242 80q97 80 97 211q0 90 -56 148t-135 92t-159 70t-136 113t-56 195q0 176 112 295q113 119 305 119
q148 0 316 -72l-49 -137q-13 4 -42 16q-28 12 -110 31t-133 19zM641 1583h-88l-221 205l43 59l239 -153l283 153l27 -59z" />
    <glyph glyph-name="scaron" unicode="&#x161;" horiz-adv-x="821" 
d="M251 121q109 0 177 57t68 157t-143 155q-58 24 -117 49t-102 73q-42 49 -42 121q0 143 90 227t234 84q144 -1 241 -49l-43 -131l-4 4q-12 4 -35 12q-84 31 -169 31q-170 0 -170 -155q0 -75 141 -131q59 -25 119 -55t100 -87q41 -57 41 -137q0 -162 -108 -260t-271 -98
t-278 80l49 114q113 -61 222 -61zM502 1206h-88l-221 205l45 59l237 -153l285 153l24 -59z" />
    <glyph glyph-name="Ydieresis" unicode="&#x178;" horiz-adv-x="1017" 
d="M733 1671l29 217h129l-29 -217h-129zM401 1671l29 217h131l-29 -217h-131zM1143 1434l-535 -789l-90 -645h-139l90 645l-297 789h154l233 -664l434 664h150z" />
    <glyph glyph-name="Zcaron" unicode="&#x17d;" horiz-adv-x="935" 
d="M831 0h-808l18 127l754 1173h-592l18 134h754l-17 -117l-749 -1182h641zM653 1583h-86l-221 205l43 59l238 -153l284 153l27 -59z" />
    <glyph glyph-name="zcaron" unicode="&#x17e;" horiz-adv-x="759" 
d="M197 1024h565l-17 -123l-509 -768h423l-18 -133h-588l17 123l510 768h-402zM549 1206h-86l-223 205l43 59l239 -153l283 153l26 -59z" />
    <glyph glyph-name="florin" unicode="&#x192;" horiz-adv-x="571" 
d="M526 1458q100 0 164 -24l-43 -111q-57 10 -112 10t-107 -37t-68 -100l-73 -291h207l-31 -123h-205l-268 -1075l-148 -20l277 1095h-139l26 123h144l81 320q33 125 114 179t181 54z" />
    <glyph glyph-name="circumflex" unicode="&#x2c6;" horiz-adv-x="903" 
d="M537 1679h88l221 -204l-43 -60l-240 154l-282 -154l-27 60z" />
    <glyph glyph-name="caron" unicode="&#x2c7;" horiz-adv-x="813" 
d="M750 1413l-299 -301l-203 301l78 84l157 -192l209 192z" />
    <glyph glyph-name="breve" unicode="&#x2d8;" horiz-adv-x="737" 
d="M373 88q65 0 101 33t48 115h82l-4 -27q-14 -103 -76 -161t-166 -58q-184 0 -184 172q0 16 8 74h82q-4 -33 -4 -46q0 -102 113 -102z" />
    <glyph glyph-name="dotaccent" unicode="&#x2d9;" horiz-adv-x="452" 
d="M381 1444h-121l27 196h121z" />
    <glyph glyph-name="ring" unicode="&#x2da;" horiz-adv-x="733" 
d="M440 1221q63 0 95 51q31 51 30 125q0 94 -86 94q-63 0 -94 -51t-31 -125q0 -94 86 -94zM489 1581q180 0 181 -176q0 -119 -58 -197t-182 -78q-180 0 -180 177q0 119 57 197t182 77z" />
    <glyph glyph-name="ogonek" unicode="&#x2db;" horiz-adv-x="555" 
d="M223 -224q0 -64 82 -65q29 0 115 25l12 -82q-94 -51 -196 -51q-147 0 -148 125q0 161 174 272h154q-102 -60 -148 -110t-45 -114z" />
    <glyph glyph-name="tilde" unicode="&#x2dc;" 
d="M714 1399q-36 0 -134 56t-123 56t-55 -19t-46 -38l-18 -20l-51 67q35 47 95 96q60 48 96 48q36 -1 134 -57t123 -56t55 19t46 38l18 21l53 -54l-2 -14q-36 -48 -96 -96q-59 -47 -95 -47z" />
    <glyph glyph-name="hungarumlaut" unicode="&#x2dd;" horiz-adv-x="919" 
d="M631 1169l-101 43l250 289l127 -61zM326 1169l-101 43l248 289l129 -61z" />
    <glyph glyph-name="Delta" unicode="&#x394;" horiz-adv-x="1128" 
d="M848 158l-158 1120l-489 -1120h647zM1022 0h-1018l625 1434h168z" />
    <glyph glyph-name="Delta" unicode="&#x2206;" horiz-adv-x="1128" 
d="M848 158l-158 1120l-489 -1120h647zM1022 0h-1018l625 1434h168z" />
    <glyph glyph-name="Omega" unicode="&#x3a9;" horiz-adv-x="1359" 
d="M188 541q0 353 150 621q74 132 198 212t279 80q213 0 319 -146t107 -381q0 -235 -75 -457t-208 -337h236l-18 -133h-488l19 133q217 82 305 306q76 195 78 438q0 444 -291 444q-113 0 -203 -72q-90 -71 -143 -185q-111 -238 -111 -493q0 -174 56 -296t180 -142l-19 -133
h-487l18 133h229q-131 145 -131 408z" />
    <glyph glyph-name="Omega" unicode="&#x2126;" horiz-adv-x="1359" 
d="M188 541q0 353 150 621q74 132 198 212t279 80q213 0 319 -146t107 -381q0 -235 -75 -457t-208 -337h236l-18 -133h-488l19 133q217 82 305 306q76 195 78 438q0 444 -291 444q-113 0 -203 -72q-90 -71 -143 -185q-111 -238 -111 -493q0 -174 56 -296t180 -142l-19 -133
h-487l18 133h229q-131 145 -131 408z" />
    <glyph glyph-name="pi" unicode="&#x3c0;" horiz-adv-x="1075" 
d="M1094 1114l-19 -133h-178l-139 -981h-135l139 981h-281l-139 -981h-139l139 981h-170l18 133h904z" />
    <glyph glyph-name="endash" unicode="&#x2013;" horiz-adv-x="921" 
d="M952 526h-921l18 133h922z" />
    <glyph glyph-name="emdash" unicode="&#x2014;" horiz-adv-x="1474" 
d="M1505 526h-1474l18 133h1475z" />
    <glyph glyph-name="quoteleft" unicode="&#x2018;" horiz-adv-x="493" 
d="M160 1044l286 531l97 -35l-238 -547z" />
    <glyph glyph-name="quoteright" unicode="&#x2019;" horiz-adv-x="491" 
d="M510 1526l-283 -533l-100 35l242 547z" />
    <glyph glyph-name="quotesinglbase" unicode="&#x201a;" horiz-adv-x="493" 
d="M418 201l-285 -533l-98 35l239 547z" />
    <glyph glyph-name="quotedblleft" unicode="&#x201c;" horiz-adv-x="858" 
d="M532 1044l279 527l94 -33l-237 -543zM160 1049l284 522l95 -33l-242 -539z" />
    <glyph glyph-name="quotedblright" unicode="&#x201d;" horiz-adv-x="858" 
d="M502 1522l-279 -527l-94 33l238 543zM874 1518l-284 -523l-94 33l239 539z" />
    <glyph glyph-name="quotedblbase" unicode="&#x201e;" horiz-adv-x="858" 
d="M410 201l-281 -527l-92 33l237 543zM780 197l-284 -523l-93 33l240 539z" />
    <glyph glyph-name="dagger" unicode="&#x2020;" horiz-adv-x="925" 
d="M471 0h-139l143 1022h-307l18 133h308l55 381h139l-55 -381h319l-18 -133h-320z" />
    <glyph glyph-name="daggerdbl" unicode="&#x2021;" horiz-adv-x="958" 
d="M526 375l-53 -375h-119l54 375h-328l18 133h328l76 536h-328l19 134h327l51 358h119l-51 -358h346l-18 -134h-346l-76 -536h346l-19 -133h-346z" />
    <glyph glyph-name="bullet" unicode="&#x2022;" horiz-adv-x="866" 
d="M217 510q0 104 80 201q80 96 197 96q88 1 145 -63t57 -168t-80 -201q-80 -96 -182 -96t-160 63q-57 64 -57 168z" />
    <glyph glyph-name="ellipsis" unicode="&#x2026;" horiz-adv-x="1361" 
d="M1231 0h-137l30 217h138zM731 0h-137l31 217h137zM231 0h-137l31 217h137z" />
    <glyph glyph-name="perthousand" unicode="&#x2030;" horiz-adv-x="1951" 
d="M1645 688q203 0 202 -250q-1 -198 -75 -324t-230 -126q-194 0 -194 248t123 378q72 74 174 74zM1632 586q-123 0 -164 -239q-8 -52 -8 -97q0 -160 101 -160q86 0 130 102t44 230q-1 164 -103 164zM473 1425q203 0 203 -249q0 -188 -74 -320t-231 -131q-195 0 -195 248
t124 379q71 73 173 73zM461 1323q-128 0 -165 -240q-7 -51 -7 -98q0 -158 100 -158q125 0 166 236q8 51 8 94q0 166 -102 166zM1051 688q203 0 202 -250q-1 -198 -75 -324t-230 -126q-194 0 -194 248t124 378q71 74 173 74zM1038 586q-123 0 -164 -239q-8 -52 -8 -97
q0 -160 101 -160q86 0 130 102t44 230q-1 164 -103 164zM1247 1409l-950 -1407h-143l950 1407h143z" />
    <glyph glyph-name="guilsinglleft" unicode="&#x2039;" horiz-adv-x="608" 
d="M451 215l-109 -47l-192 438l319 443l92 -48l-252 -391z" />
    <glyph glyph-name="guilsinglright" unicode="&#x203a;" horiz-adv-x="608" 
d="M242 1001l110 48l193 -439l-320 -442l-94 47l254 391z" />
    <glyph glyph-name="fraction" unicode="&#x2044;" horiz-adv-x="749" 
d="M1026 1409l-952 -1409h-142l949 1409h145z" />
    <glyph glyph-name="Euro" unicode="&#x20ac;" horiz-adv-x="1161" 
d="M679 121q138 0 335 80l20 -107q-176 -106 -378 -106t-320 136q-119 136 -127 368h-154l19 133h143q12 133 29 196h-144l19 133h162q82 236 242 368q161 132 378 132q139 0 277 -61l-50 -127q-111 55 -260 55t-262 -97t-176 -270h430l-22 -135h-445q-26 -106 -28 -194h446
l-20 -133h-435q10 -176 96 -274t225 -97z" />
    <glyph glyph-name="trademark" unicode="&#x2122;" horiz-adv-x="1263" 
d="M276 856l66 471h-145l16 107h397l-16 -107h-150l-65 -471h-103zM1198 856h-100l55 397l-199 -239h-18l-117 239l-55 -397h-98l82 578h104l123 -267l205 267h100z" />
    <glyph glyph-name="arrowleft" unicode="&#x2190;" horiz-adv-x="1374" 
d="M518 152l-387 501l518 469l82 -108l-321 -293h929l-20 -154h-930l242 -309z" />
    <glyph glyph-name="arrowup" unicode="&#x2191;" horiz-adv-x="1300" 
d="M276 768l523 508l352 -502l-113 -108l-219 311l-145 -1034h-139l145 1034l-324 -320z" />
    <glyph glyph-name="arrowright" unicode="&#x2192;" horiz-adv-x="1374" 
d="M944 1137l387 -502l-516 -469l-84 108l322 293h-930l22 154h930l-244 309z" />
    <glyph glyph-name="arrowdown" unicode="&#x2193;" horiz-adv-x="1300" 
d="M1102 399l-522 -508l-353 502l113 109l219 -312l146 1035h139l-146 -1035l322 320z" />
    <glyph glyph-name="partialdiff" unicode="&#x2202;" horiz-adv-x="937" 
d="M164 387q0 -117 56 -185t158 -69q101 1 177 63q127 105 178 361q20 100 23 197q-164 31 -256 30q-141 0 -239 -111q-97 -112 -97 -286zM903 815q0 -404 -162 -634q-134 -193 -397 -193q-142 0 -234 93t-92 273q0 232 129 398t363 166q104 0 238 -25q0 158 -100 294
t-279 185l59 139q203 -53 339 -243t136 -453z" />
    <glyph glyph-name="product" unicode="&#x220f;" horiz-adv-x="960" 
d="M100 0h-137l199 1434h780l-201 -1434h-139l182 1300h-501z" />
    <glyph glyph-name="summation" unicode="&#x2211;" horiz-adv-x="847" 
d="M629 0h-666l17 125l456 569l-272 617l16 123h629l-18 -134h-465l264 -598l-453 -569h510z" />
    <glyph glyph-name="minus" unicode="&#x2212;" horiz-adv-x="1050" 
d="M958 563h-794l18 133h795z" />
    <glyph glyph-name="radical" unicode="&#x221a;" horiz-adv-x="1132" 
d="M356 0l-92 891h-194l18 133h303l92 -870l604 1484h152l-688 -1638h-195z" />
    <glyph glyph-name="infinity" unicode="&#x221e;" horiz-adv-x="1642" 
d="M1272 813q-115 0 -326 -211q68 -94 129 -147t147 -53t149 67q63 68 63 160t-43 138t-119 46zM490 813q-82 0 -144 -73t-63 -163q0 -176 168 -176q118 0 315 201q-74 100 -134 156t-142 55zM1298 936q127 0 202 -70t75 -194q0 -172 -101 -286q-102 -114 -278 -114
t-354 248q-236 -248 -416 -248q-127 0 -202 70t-74 195q0 171 101 285t279 114q100 0 184 -66t169 -178q240 244 415 244z" />
    <glyph glyph-name="integral" unicode="&#x222b;" horiz-adv-x="649" 
d="M676 1524q-127 0 -148 -140l-215 -1542q-18 -127 -99 -190q-132 -103 -298 -41l27 100h88q125 0 145 139l219 1543q17 127 97 190q132 104 301 41l-27 -100h-90z" />
    <glyph glyph-name="approxequal" unicode="&#x2248;" horiz-adv-x="1050" 
d="M152 393q103 131 243 131q76 0 166 -61t160 -61t172 94l37 -60q-94 -168 -240 -168q-86 0 -177 60t-162 61q-71 0 -169 -92zM209 813q103 131 243 131q76 0 168 -61t160 -61q70 0 172 93l35 -59q-92 -168 -237 -168q-86 0 -178 60t-162 61q-70 0 -168 -92z" />
    <glyph glyph-name="notequal" unicode="&#x2260;" horiz-adv-x="739" 
d="M834 1376l-226 -499h273l-19 -134h-313l-109 -245h387l-18 -136h-430l-162 -360h-129l164 360h-236l19 136h276l111 245h-352l18 134h393l226 499h127z" />
    <glyph glyph-name="lessequal" unicode="&#x2264;" horiz-adv-x="903" 
d="M692 0h-719l19 133h719zM725 242l-655 458l16 117l784 461l-22 -164l-637 -354l537 -359z" />
    <glyph glyph-name="greaterequal" unicode="&#x2265;" horiz-adv-x="903" 
d="M692 0h-719l19 133h719zM791 709l-785 -459l21 158l639 358l-539 354l25 164l655 -461z" />
    <glyph glyph-name="flecha01" unicode="&#x25b7;" horiz-adv-x="1224" 
d="M326 197l647 387l-535 415zM147 -96l193 1372l889 -686z" />
    <glyph glyph-name="lozenge" unicode="&#x25ca;" horiz-adv-x="1001" 
d="M807 717l-180 547l-334 -543l182 -547zM977 721l-473 -723h-113l-268 719l473 717h113z" />
    <glyph glyph-name="_0000" unicode="&#xe000;" horiz-adv-x="0" 
 />
    <glyph glyph-name="CR" unicode="&#xe001;" horiz-adv-x="389" 
 />
    <glyph glyph-name="_0001" unicode="&#xe002;" horiz-adv-x="0" 
 />
    <glyph glyph-name="_0158" unicode="&#xe003;" horiz-adv-x="1140" 
 />
    <glyph glyph-name="graveMAY" unicode="&#xe004;" horiz-adv-x="806" 
d="M559 1436h-113l-143 254h156z" />
    <glyph glyph-name="acuteMAY" unicode="&#xe005;" horiz-adv-x="806" 
d="M428 1436l174 254h156l-217 -254h-113z" />
    <glyph glyph-name="flecha02" unicode="&#xe006;" horiz-adv-x="1859" 
d="M311 119l1221 469l-1090 456zM147 -96l193 1372l1552 -703z" />
    <glyph glyph-name="Crculo0" unicode="&#xe007;" horiz-adv-x="1161" 
d="M756 1157l-25 -182h-137l24 182h138zM1014 884q0 186 -76 312t-227 125q-153 0 -263 -127t-157 -294q-47 -168 -47 -352t74 -304t220 -119q148 0 260 119q112 118 164 286t52 354zM522 -10q-211 0 -315 148t-105 397q0 353 149 624q73 133 196 214q124 81 282 81
q213 0 319 -147t105 -396q0 -353 -151 -623q-74 -134 -198 -216t-282 -82zM506 326l80 567h129l-80 -567h-129z" />
    <glyph glyph-name="a.salt" unicode="&#xe008;" 
d="M590 483q-254 0 -323 -95q-34 -46 -34 -117t32 -113q33 -42 95 -41q62 0 125 34t158 117l31 215h-84zM702 772q0 76 -42 108t-173 32t-239 -44l-8 119q162 57 327 57q281 0 281 -270q0 -41 -6 -90l-97 -684h-79l-33 121q-94 -78 -160 -106q-66 -27 -164 -27t-157 66
t-60 179q0 367 522 379h76q12 84 12 160z" />
    <glyph glyph-name="agrave.salt" unicode="&#xe009;" 
d="M702 1212l-114 -43l-203 271l150 61zM590 483q-254 0 -323 -95q-34 -46 -34 -117t32 -113q33 -42 95 -41q62 0 125 34t158 117l31 215h-84zM702 772q0 76 -42 108t-173 32t-239 -44l-8 119q162 57 327 57q281 0 281 -270q0 -41 -6 -90l-97 -684h-79l-33 121
q-94 -78 -160 -106q-66 -27 -164 -27t-157 66t-60 179q0 367 522 379h76q12 84 12 160z" />
    <glyph glyph-name="aacute.salt" unicode="&#xe00a;" horiz-adv-x="1054" 
d="M590 483q-254 0 -323 -95q-34 -46 -34 -117t32 -113q33 -42 95 -41q62 0 125 34t158 117l31 215h-84zM702 772q0 76 -42 108t-173 32t-239 -44l-8 119q162 57 327 57q281 0 281 -270q0 -41 -6 -90l-97 -684h-79l-33 121q-94 -78 -160 -106q-66 -27 -164 -27t-157 66
t-60 179q0 367 522 379h76q12 84 12 160zM676 1169l-103 43l250 289l129 -61z" />
    <glyph glyph-name="acircumflex.salt" unicode="&#xe00b;" horiz-adv-x="985" 
d="M590 483q-254 0 -323 -95q-34 -46 -34 -117t32 -113q33 -42 95 -41q62 0 125 34t158 117l31 215h-84zM702 772q0 76 -42 108t-173 32t-239 -44l-8 119q162 57 327 57q281 0 281 -270q0 -41 -6 -90l-97 -684h-79l-33 121q-94 -78 -160 -106q-66 -27 -164 -27t-157 66
t-60 179q0 367 522 379h76q12 84 12 160zM573 1458h89l221 -205l-43 -59l-240 154l-283 -154l-26 59z" />
    <glyph glyph-name="atilde.salt" unicode="&#xe00c;" horiz-adv-x="1011" 
d="M590 483q-254 0 -323 -95q-34 -46 -34 -117t32 -113q33 -42 95 -41q62 0 125 34t158 117l31 215h-84zM702 772q0 76 -42 108t-173 32t-239 -44l-8 119q162 57 327 57q281 0 281 -270q0 -41 -6 -90l-97 -684h-79l-33 121q-94 -78 -160 -106q-66 -27 -164 -27t-157 66
t-60 179q0 367 522 379h76q12 84 12 160zM716 1188q-36 0 -134 56t-123 56t-55 -19t-48 -40l-16 -18l-51 67q35 47 95 96q60 48 96 48t134 -56t123 -57q25 0 55 19t48 40l16 19l53 -53l-2 -15q-36 -48 -96 -96q-59 -47 -95 -47z" />
    <glyph glyph-name="adieresis.salt" unicode="&#xe00d;" 
d="M590 483q-254 0 -323 -95q-34 -46 -34 -117t32 -113q33 -42 95 -41q62 0 125 34t158 117l31 215h-84zM702 772q0 76 -42 108t-173 32t-239 -44l-8 119q162 57 327 57q281 0 281 -270q0 -41 -6 -90l-97 -684h-79l-33 121q-94 -78 -160 -106q-66 -27 -164 -27t-157 66
t-60 179q0 367 522 379h76q12 84 12 160zM684 1217l29 217h129l-29 -217h-129zM352 1217l29 217h131l-29 -217h-131z" />
    <glyph glyph-name="aring.salt" unicode="&#xe00e;" 
d="M590 483q-254 0 -323 -95q-34 -46 -34 -117t32 -113q33 -42 95 -41q62 0 125 34t158 117l31 215h-84zM702 772q0 76 -42 108t-173 32t-239 -44l-8 119q162 57 327 57q281 0 281 -270q0 -41 -6 -90l-97 -684h-79l-33 121q-94 -78 -160 -106q-66 -27 -164 -27t-157 66
t-60 179q0 367 522 379h76q12 84 12 160zM598 1221q63 0 94 51t31 125q0 94 -86 94q-63 0 -94 -51t-31 -125q0 -94 86 -94zM647 1581q180 0 180 -176q0 -119 -57 -197t-182 -78q-180 0 -180 177q0 119 57 197t182 77z" />
    <glyph glyph-name="e.salt" unicode="&#xe00f;" horiz-adv-x="901" 
d="M733 698q0 213 -178 213q-119 0 -185 -88t-89 -227h444q8 74 8 102zM246 385q0 -143 69 -205q70 -61 161 -61q92 0 130 12l50 15q11 4 47 16t51 16l4 -119q-195 -72 -297 -71q-164 0 -259 95q-96 95 -96 303t109 421q53 104 146 171q93 66 222 66t207 -89t76 -246
q0 -74 -28 -230h-584q-8 -70 -8 -94z" />
    <glyph glyph-name="ae.salt" unicode="&#xe010;" horiz-adv-x="1454" 
d="M1286 698q0 213 -178 213q-119 0 -185 -88t-89 -227h444q8 74 8 102zM590 483q-254 0 -323 -95q-34 -46 -34 -117t32 -113q33 -42 95 -41q62 0 125 34t158 117l31 215h-84zM1419 709q0 -74 -28 -230h-584q-8 -70 -8 -94q0 -143 69 -205q70 -61 160 -61t130 12t51 15
q11 4 47 16t51 16l4 -119q-195 -72 -297 -71q-233 0 -316 180q-174 -180 -372 -180q-115 0 -174 66t-60 179q0 201 146 290t376 89h76q12 84 12 160t-42 108t-173 32t-239 -44l-8 119q161 57 327 57q205 0 260 -147q123 147 299 147q139 0 216 -89t77 -246z" />
    <glyph glyph-name="egrave.salt" unicode="&#xe011;" horiz-adv-x="901" 
d="M647 1212l-115 -43l-202 271l149 61zM733 698q0 213 -178 213q-119 0 -185 -88t-89 -227h444q8 74 8 102zM246 385q0 -143 69 -205q70 -61 161 -61q92 0 130 12l50 15q11 4 47 16t51 16l4 -119q-195 -72 -297 -71q-164 0 -259 95q-96 95 -96 303t109 421q53 104 146 171
q93 66 222 66t207 -89t76 -246q0 -74 -28 -230h-584q-8 -70 -8 -94z" />
    <glyph glyph-name="eacute.salt" unicode="&#xe012;" horiz-adv-x="903" 
d="M592 1169l-103 43l250 289l129 -61zM733 698q0 213 -178 213q-119 0 -185 -88t-89 -227h444q8 74 8 102zM246 385q0 -143 69 -205q70 -61 161 -61q92 0 130 12l50 15q11 4 47 16t51 16l4 -119q-195 -72 -297 -71q-164 0 -259 95q-96 95 -96 303t109 421q53 104 146 171
q93 66 222 66t207 -89t76 -246q0 -74 -28 -230h-584q-8 -70 -8 -94z" />
    <glyph glyph-name="ecircumflex.salt" unicode="&#xe013;" horiz-adv-x="901" 
d="M573 1458h89l221 -205l-43 -59l-240 154l-283 -154l-26 59zM733 698q0 213 -178 213q-119 0 -185 -88t-89 -227h444q8 74 8 102zM246 385q0 -143 69 -205q70 -61 161 -61q92 0 130 12l50 15q11 4 47 16t51 16l4 -119q-195 -72 -297 -71q-164 0 -259 95q-96 95 -96 303
t109 421q53 104 146 171q93 66 222 66t207 -89t76 -246q0 -74 -28 -230h-584q-8 -70 -8 -94z" />
    <glyph glyph-name="edieresis.salt" unicode="&#xe014;" horiz-adv-x="901" 
d="M680 1219l29 217h129l-29 -217h-129zM348 1219l29 217h131l-29 -217h-131zM733 698q0 213 -178 213q-119 0 -185 -88t-89 -227h444q8 74 8 102zM246 385q0 -143 69 -205q70 -61 161 -61q92 0 130 12l50 15q11 4 47 16t51 16l4 -119q-195 -72 -297 -71q-164 0 -259 95
q-96 95 -96 303t109 421q53 104 146 171q93 66 222 66t207 -89t76 -246q0 -74 -28 -230h-584q-8 -70 -8 -94z" />
    <glyph glyph-name="fi" unicode="&#xfb01;" horiz-adv-x="956" 
d="M938 1432l-27 -183h-139l27 183h139zM528 1454q80 0 154 -27l-37 -110q-61 12 -88 12q-129 0 -147 -137l-23 -168h494l-144 -1024h-139l125 899h-354l-125 -899h-140l125 901h-141l18 123h144l26 197q18 125 96 179q76 54 156 54z" />
    <glyph glyph-name="fl" unicode="&#xfb02;" horiz-adv-x="839" 
d="M555 1329q-129 0 -147 -137l-23 -168h186l-18 -123h-186l-125 -901h-140l125 901h-141l18 123h144l26 197q18 125 96 179t175 54q41 0 139 -20l139 22l-202 -1456h-138l185 1311q-82 18 -113 18z" />
    </font>
</defs>
</svg>
